<svg width="116" height="40" viewBox="0 0 116 40" fill="none" xmlns="http://www.w3.org/2000/svg">
<path fill-rule="evenodd" clip-rule="evenodd" d="M32.0689 11.2059H35.9311V18.034H41.8666C43.0617 18.0579 43.9842 17.9919 44.673 17.8164L44.8575 17.7692L45.0236 17.6757C46.0198 17.1159 46.4466 16.7027 46.9316 15.8135C46.9903 15.7057 47.0441 15.596 47.0929 15.4843C47.2799 15.0571 47.3921 14.6159 47.449 14.1634C47.4848 13.88 47.4944 13.6647 47.4948 13.3762V13.266L47.4954 13.2257C47.4996 12.9831 47.492 12.7404 47.4724 12.4985C47.44 12.1023 47.3746 11.7131 47.2643 11.3338C47.1367 10.8959 46.9546 10.4908 46.7033 10.1281C46.2199 9.43109 45.7886 9.06624 44.9948 8.6677L44.9475 8.64432L44.9367 8.63906C44.2404 8.30733 43.2549 8.21675 41.8481 8.28045H38.8325V6H35.9311V8.28025H32.0689V6H29.1676V8.28025H22.4087V18.0338H32.0689V11.2059ZM29.1676 11.2059V15.1082H25.3101V11.2059H29.1676ZM38.8325 11.2059V15.1082H41.896L41.9566 15.1093C42.7738 15.1245 43.3948 15.0893 43.7949 15.0158C44.1122 14.8319 44.1884 14.7593 44.323 14.5232L44.3506 14.4737L44.3894 14.4034C44.4069 14.3712 44.4233 14.3377 44.4385 14.3029C44.5588 14.0278 44.5943 13.7464 44.5933 13.3309V13.2868L44.5947 13.1417C44.5968 12.78 44.5682 12.4592 44.4803 12.1576C44.4363 12.0065 44.3826 11.8869 44.3255 11.8047C44.1515 11.5538 44.0863 11.4854 43.8145 11.344L43.7545 11.3132L43.6922 11.282C43.5459 11.2177 42.9836 11.1657 42.1142 11.1975L42.015 11.2014L41.9147 11.2059H38.8325ZM35.9348 28.7941V21.9662H41.8703C43.0654 21.9423 43.9879 22.0083 44.6767 22.184L44.8612 22.231L45.0273 22.3245L45.0951 22.3628L45.1611 22.4008C46.0628 22.9233 46.4727 23.3386 46.9353 24.1871C46.994 24.2945 47.0478 24.4042 47.0966 24.5161C47.2836 24.9433 47.3958 25.3845 47.4529 25.837C47.4885 26.1202 47.4981 26.3355 47.4985 26.6241V26.7344L47.4991 26.7747C47.5037 27.0173 47.4961 27.26 47.4763 27.5019C47.4439 27.8981 47.3785 28.2871 47.268 28.6664C47.1406 29.1043 46.9585 29.5094 46.707 29.8721C46.2311 30.5584 45.8057 30.9228 45.0349 31.3142L44.9512 31.3561L44.9406 31.3611C44.2441 31.6929 43.2586 31.7834 41.852 31.7199H38.8362V34H35.9348V31.7199H32.0728V34H29.1711V31.7199H22.4126V21.9662H32.0728V28.7941H35.9348ZM29.1713 24.892H25.314V28.7941H29.1711L29.1713 24.892ZM38.8362 28.7941V24.892H41.8999L42.0055 24.8901C42.7399 24.878 43.3126 24.9072 43.7051 24.9686L43.7532 24.9764L43.7986 24.9844C44.1093 25.1642 44.1887 25.2376 44.3181 25.462L44.3454 25.5101L44.3931 25.5968C44.4106 25.629 44.427 25.6625 44.4422 25.6971C44.5625 25.9722 44.598 26.2538 44.5972 26.6693L44.597 26.7134L44.5984 26.8585C44.6007 27.22 44.5719 27.5408 44.484 27.8426C44.4402 27.9935 44.3865 28.1131 44.3292 28.1955C44.155 28.4468 44.09 28.515 43.8173 28.6568L43.7779 28.6771L43.6961 28.7182C43.5496 28.7823 42.9873 28.8343 42.1179 28.8027L42.0187 28.7988L41.9186 28.7941H38.8362Z" fill="black"/>
<path fill-rule="evenodd" clip-rule="evenodd" d="M84.7258 11.3143H86.0851V17.4407H84.7258V11.3143ZM63.1065 11.3143H64.4658V17.4407H63.1065V11.3143ZM69.8894 25.0406H71.2516V31.2549H69.8894V25.0406ZM85.4201 9.85214C85.8973 9.85214 86.3311 9.54495 86.3311 9.09167C86.3311 8.60916 85.9117 8.27295 85.4201 8.27295C84.914 8.27295 84.5234 8.60916 84.5234 9.09167C84.5234 9.54495 84.914 9.85214 85.4201 9.85214ZM80.1203 26.6868C80.1203 26.1975 80.7579 26.0342 81.4535 26.0342C82.294 26.0342 83.3229 26.3161 83.7865 26.5978V25.3667C83.178 25.085 82.2794 24.9069 81.4535 24.9069C79.8883 24.9069 78.7001 25.3667 78.7001 26.7906C78.7001 27.7842 79.4537 28.3332 81.0912 28.6446C81.9317 28.7929 82.7288 28.9263 82.7288 29.5049C82.7288 30.1276 82.1201 30.2464 81.3954 30.2464C80.4826 30.2464 79.3378 29.935 78.8884 29.6827V30.9138C79.4682 31.1659 80.3956 31.3735 81.3376 31.3735C82.7867 31.3735 84.1779 30.9138 84.1779 29.3564C84.1779 27.2059 80.1203 27.9179 80.1203 26.6868ZM91.2623 11.1534C90.3657 11.1534 89.6572 11.4019 88.9776 12.0747L87.705 11.3143V17.4407H89.0643V13.449C89.4837 12.8056 90.2356 12.3523 90.8719 12.3523C91.8697 12.3523 92.2602 12.7179 92.2602 14.1508V17.4409H93.5907V13.8731C93.5907 12.0161 92.7229 11.1534 91.2623 11.1534ZM74.1113 17.5578C74.8634 17.5578 75.5865 17.4409 76.1648 17.1922V15.9788C75.3551 16.3736 74.8344 16.4613 74.2705 16.4613C73.2149 16.4613 71.9856 15.7302 71.9856 14.385C71.9856 12.9521 73.0702 12.3087 74.2705 12.3087C74.82 12.3087 75.4708 12.4256 76.0491 12.762V11.5192C75.5431 11.2706 74.9069 11.1536 74.3574 11.1536C72.1881 11.1536 70.5828 12.4696 70.5828 14.3265C70.5828 16.5784 72.4628 17.558 74.1113 17.558V17.5578ZM83.5257 14.3556C83.5257 16.271 82.1374 17.5578 80.1127 17.5578C78.1317 17.5578 76.7144 16.2858 76.6999 14.3556C76.6999 12.4402 78.1317 11.1534 80.1127 11.1534C82.1374 11.1534 83.5257 12.44 83.5257 14.3556ZM82.1662 14.3702C82.1662 13.1128 81.3565 12.3523 80.1127 12.3523C78.8836 12.3523 78.0882 13.142 78.0882 14.3704C78.0882 15.6278 78.8836 16.388 80.1127 16.388C81.3565 16.388 82.1662 15.5837 82.1662 14.3702ZM59.8527 13.0103C60.5179 12.5863 61.1543 11.9136 61.1543 10.9927C61.1543 9.77909 60.2867 8.88694 58.3777 8.88694H54.8492V17.4261H58.4646C60.3589 17.4261 61.6315 16.6074 61.6315 14.9551C61.6315 13.9315 60.9663 13.2881 59.8527 13.0103ZM56.1506 10.1155H58.103C59.0719 10.1155 59.7081 10.5396 59.7081 11.3291C59.7081 12.1772 59.0429 12.6159 58.2041 12.6159H56.1506V10.1155ZM56.1506 16.1833H58.4067C59.6793 16.1833 60.1854 15.6718 60.1854 14.8967C60.1854 14.0488 59.549 13.7124 58.103 13.7124H56.1506V16.1833ZM69.8019 16.3734C69.5273 16.4319 69.2236 16.4611 68.9922 16.4611C68.5149 16.4611 68.1534 16.2858 68.1534 15.613V12.3523H69.7587V11.3141H68.139V9.74987L66.7797 9.89597V11.2996H65.7529V12.3379H66.7797V15.7885C66.7797 17.002 67.4737 17.6162 68.5293 17.6162C68.7752 17.6162 69.2524 17.6162 69.8019 17.4409V16.3734ZM63.7717 9.85214C64.2778 9.85214 64.6683 9.54495 64.6683 9.09167C64.6683 8.60916 64.2778 8.27295 63.7717 8.27295C63.2945 8.27295 62.8607 8.60916 62.8607 9.09167C62.8751 9.54495 63.2945 9.85214 63.7717 9.85214ZM73.9904 26.6868C73.9904 26.1975 74.6281 26.0342 75.3237 26.0342C76.1641 26.0342 77.193 26.3161 77.6568 26.5978V25.3667C77.048 25.085 76.1497 24.9069 75.3237 24.9069C73.7586 24.9069 72.5703 25.3667 72.5703 26.7906C72.5703 27.7842 73.3238 28.3332 74.9614 28.6446C75.802 28.7929 76.5988 28.9263 76.5988 29.5049C76.5988 30.1276 75.9903 30.2464 75.2657 30.2464C74.3527 30.2464 73.2079 29.935 72.7587 29.6827V30.9138C73.3384 31.1659 74.2658 31.3735 75.2076 31.3735C76.6569 31.3735 78.0481 30.9138 78.0481 29.3564C78.0335 27.2059 73.9904 27.9179 73.9904 26.6868ZM84.8445 28.1107C84.8445 26.1975 86.3806 24.8921 88.192 24.8921C90.1193 24.8921 91.2062 26.2123 91.2206 27.9031C91.2206 28.1847 91.2206 28.422 91.1916 28.6446H86.2645C86.3516 29.6531 87.5398 30.2462 88.6556 30.2462C89.3802 30.2462 90.0758 30.1276 90.8293 29.7273V30.9286C90.1627 31.2697 89.2497 31.3883 88.3803 31.3883C86.2935 31.3883 84.8445 30.0832 84.8445 28.1107ZM88.192 25.975C87.2646 25.975 86.4094 26.583 86.2645 27.5768H89.8875C89.757 26.5089 89.0035 25.975 88.192 25.975ZM70.5416 21.9556C70.0633 21.9556 69.643 22.2967 69.643 22.7862C69.643 23.2459 70.0633 23.5574 70.5416 23.5574C71.0198 23.5574 71.4546 23.2459 71.4546 22.786C71.4546 22.2967 71.0342 21.9556 70.5416 21.9556ZM66.8027 29.1192C66.4115 29.7421 65.6291 30.2612 64.9623 30.2612C63.9914 30.2612 63.6581 29.8013 63.6581 28.4072V25.0406H62.2959V28.7187C62.2959 30.2018 62.7163 31.4329 64.4406 31.4329C65.1943 31.4329 65.9768 31.3439 66.8317 30.5429L66.9188 31.2549H68.1505V25.0406H66.7883V29.1192H66.8027ZM58.3109 26.4347C56.6444 26.0046 56.0213 25.6635 56.0213 24.8627C56.0213 24.1804 56.5719 23.7205 57.5574 23.7205C58.4414 23.7205 59.4557 24.0617 60.3687 24.6253V23.1125C59.5862 22.6824 58.5861 22.4005 57.5574 22.4005C55.7748 22.4005 54.4707 23.3054 54.4707 25.0258C54.4707 26.7314 55.7314 27.1317 57.4269 27.5618C59.1514 27.9919 59.5716 28.3628 59.5716 29.0153C59.5716 29.7865 58.934 30.1574 57.9051 30.1574C56.7893 30.1574 55.6155 29.7273 54.6156 29.0747V30.6467C55.4271 31.1659 56.9052 31.4773 57.8761 31.4773C59.7745 31.4773 61.1077 30.7654 61.1077 28.8225C61.1221 27.3987 60.0354 26.8944 58.3109 26.4347Z" fill="black"/>
<path opacity="0.47" fill-rule="evenodd" clip-rule="evenodd" d="M29.1692 28.7739V31.7188H25.4224V28.7739H29.1692Z" fill="black"/>
<path opacity="0.47" fill-rule="evenodd" clip-rule="evenodd" d="M35.9272 28.7739V31.7188H33.5156V28.7739H35.9272Z" fill="black"/>
<path opacity="0.47" fill-rule="evenodd" clip-rule="evenodd" d="M32.0752 31.7188V28.7739H34.4869V31.7188H32.0752Z" fill="black"/>
<path opacity="0.47" fill-rule="evenodd" clip-rule="evenodd" d="M38.8525 31.7188V28.7739H42.5994V31.7188H38.8525Z" fill="black"/>
<path opacity="0.47" fill-rule="evenodd" clip-rule="evenodd" d="M29.1543 11.2148H32.0766V14.9975H29.1543V11.2148Z" fill="black"/>
<path opacity="0.47" fill-rule="evenodd" clip-rule="evenodd" d="M35.9302 11.1997H38.8359V14.9822H35.9304L35.9302 11.1997Z" fill="black"/>
<path opacity="0.47" fill-rule="evenodd" clip-rule="evenodd" d="M35.9136 6.00293H38.8526V8.27344H35.9136V6.00293Z" fill="black"/>
<path opacity="0.47" fill-rule="evenodd" clip-rule="evenodd" d="M29.1543 6.08691H32.0766V8.27328H29.1543V6.08691Z" fill="black"/>
</svg>
