<svg width="116" height="40" viewBox="0 0 116 40" fill="none" xmlns="http://www.w3.org/2000/svg">
<path d="M29.1731 24.0173C30.6199 24.0173 31.7384 23.6285 32.5069 22.7907L31.336 21.3613C30.6945 21.8927 29.9561 22.1323 29.1736 22.1323C27.8834 22.1323 27.1004 21.2789 27.1004 19.9398C27.1004 18.6006 27.8834 17.7478 29.1731 17.7478C29.9561 17.7478 30.6945 17.9873 31.3355 18.5187L32.5069 17.0893C31.7384 16.251 30.6199 15.8622 29.1731 15.8622C26.4288 15.8622 24.6543 17.5233 24.6543 19.9398C24.6543 22.3567 26.4288 24.0173 29.1731 24.0173ZM35.8271 23.7933V19.7982C35.8271 18.526 36.2073 17.7473 37.3932 17.7473C38.5787 17.7473 38.9593 18.526 38.9593 19.7982V23.7933H41.4053V19.7982C41.4053 17.3512 40.4211 15.8622 37.8781 15.8622C36.9384 15.8622 36.2747 16.221 35.8271 16.9022V12.4503H33.3811V23.7933H35.8271ZM45.3743 23.9727C46.3585 23.9727 47.2759 23.7182 47.6861 22.7829V23.7933H50.1394V19.0418C50.1394 16.9473 49.3564 15.8622 46.4778 15.8622C45.5008 15.8622 44.1214 16.0416 43.0698 16.588L43.8829 18.1589C44.7479 17.7924 45.5159 17.6726 46.329 17.6726C47.5294 17.6726 47.6933 18.092 47.6933 18.78C45.1207 18.5483 42.4288 19.0273 42.4288 21.4064C42.4288 23.2246 43.8305 23.9727 45.3743 23.9727ZM45.9707 22.0872C45.1949 22.0872 44.8749 21.7056 44.8749 21.182C44.8749 20.0969 46.791 20.0668 47.6861 20.142V20.8076C47.6861 21.4738 47.0747 22.0872 45.9707 22.0872ZM52.7445 15.099C53.0852 15.0984 53.4116 14.9625 53.6521 14.7212C53.8926 14.4799 54.0274 14.1529 54.0269 13.8123C54.0272 13.6435 53.9943 13.4764 53.93 13.3204C53.8658 13.1644 53.7714 13.0226 53.6523 12.903C53.5332 12.7835 53.3917 12.6886 53.236 12.6237C53.0802 12.5588 52.9132 12.5253 52.7445 12.525C52.5757 12.5252 52.4086 12.5587 52.2528 12.6236C52.097 12.6884 51.9555 12.7833 51.8364 12.9028C51.7172 13.0224 51.6228 13.1642 51.5585 13.3203C51.4942 13.4763 51.4613 13.6435 51.4616 13.8123C51.4613 13.981 51.4943 14.1481 51.5586 14.3041C51.623 14.4601 51.7174 14.6019 51.8365 14.7213C51.9557 14.8408 52.0971 14.9357 52.2529 15.0005C52.4087 15.0653 52.5758 15.0988 52.7445 15.099ZM53.9673 23.7933V16.0867H51.5212V23.7933H53.9673ZM57.7947 23.7933V19.7982C57.7947 18.526 58.1753 17.7473 59.3607 17.7473C60.5467 17.7473 60.9268 18.526 60.9268 19.7982V23.7933H63.3728V19.7982C63.3728 17.3512 62.3886 15.8622 59.8456 15.8622C58.9059 15.8622 58.2422 16.221 57.7947 16.9022V16.0867H55.3491V23.7933H57.7947ZM67.1406 27.774V22.7756C67.5959 23.4641 68.4308 24.0178 69.6618 24.0178C71.9435 24.0178 73.5842 22.4988 73.5842 19.9403C73.5842 17.3812 71.9435 15.8622 69.6618 15.8622C68.4308 15.8622 67.5959 16.4159 67.1406 17.1044V16.0862H64.6945V27.774H67.1406ZM69.1391 22.1323C67.8494 22.1323 67.1406 21.2043 67.1406 19.9398C67.1406 18.6753 67.8494 17.7478 69.1391 17.7478C70.4293 17.7478 71.1377 18.6753 71.1377 19.9398C71.1377 21.2043 70.4298 22.1323 69.1391 22.1323ZM77.0533 23.7933V19.7982C77.0533 18.526 77.4339 17.7473 78.6194 17.7473C79.1639 17.7473 79.6114 17.9199 79.8572 18.077L80.9311 16.2215C80.4463 15.9892 79.8354 15.8622 79.1042 15.8622C78.1646 15.8622 77.5008 16.221 77.0533 16.9022V16.0867H74.6073V23.7933H77.0533ZM85.3627 24.0178C88.1069 24.0178 89.8814 22.349 89.8814 19.9403C89.8814 17.5233 88.1069 15.8622 85.3627 15.8622C82.6184 15.8622 80.8439 17.5233 80.8439 19.9398C80.8439 22.3495 82.6184 24.0178 85.3627 24.0178ZM85.3627 22.1318C83.9978 22.1318 83.2894 21.2043 83.2894 19.9403C83.2894 18.6753 83.9978 17.7478 85.3627 17.7478C86.7275 17.7478 87.4359 18.6753 87.4359 19.9398C87.4359 21.2043 86.7275 22.1318 85.3627 22.1318ZM95.1261 24.0178C97.8703 24.0178 99.6453 22.349 99.6453 19.9403C99.6453 17.5233 97.8708 15.8622 95.1265 15.8622C92.3823 15.8622 90.6073 17.5233 90.6073 19.9398C90.6073 22.3495 92.3818 24.0178 95.1261 24.0178ZM95.1261 22.1318C93.7617 22.1318 93.0528 21.2043 93.0528 19.9403C93.0528 18.6753 93.7617 17.7478 95.1261 17.7478C96.4909 17.7478 97.1993 18.6753 97.1993 19.9398C97.1993 21.2043 96.4909 22.1318 95.1261 22.1318ZM103.838 23.7933V17.9723H105.956V16.0862H103.838C103.846 14.6573 103.876 14.1114 104.867 14.1114C105.225 14.1114 105.576 14.1861 105.851 14.2685L106.485 12.555C105.941 12.3456 105.21 12.2258 104.568 12.2258C101.787 12.2258 101.436 14.0367 101.392 16.0867H99.9896V17.9723H101.392V23.7933H103.838H103.838Z" fill="black"/>
<path d="M14.4416 24.1309L21.4185 17.1854C21.6401 16.9624 21.6401 16.6065 21.421 16.3883L20.4881 15.4598C20.382 15.3539 20.2383 15.2944 20.0884 15.2944C19.9385 15.2944 19.7947 15.3539 19.6886 15.4598L14.043 21.0753L11.4161 18.461C11.3101 18.3552 11.1664 18.2957 11.0166 18.2957C10.8668 18.2957 10.7231 18.3552 10.6171 18.461L9.68133 19.3919C9.62867 19.4441 9.58687 19.5062 9.55835 19.5746C9.52982 19.643 9.51514 19.7164 9.51514 19.7905C9.51514 19.8646 9.52982 19.938 9.55835 20.0064C9.58687 20.0748 9.62867 20.1369 9.68133 20.189L13.6416 24.1309C13.7476 24.2366 13.8913 24.296 14.0411 24.296C14.1909 24.296 14.3345 24.2366 14.4406 24.1309H14.4416Z" fill="black"/>
<path d="M14.2669 18.8653L19.224 13.9421C19.2591 13.9071 19.287 13.8654 19.3061 13.8196C19.3251 13.7738 19.3349 13.7246 19.3349 13.675C19.3349 13.6253 19.3251 13.5762 19.3061 13.5303C19.287 13.4845 19.2591 13.4429 19.224 13.4078L18.1467 12.3373C18.0753 12.2659 17.9785 12.2258 17.8776 12.2258C17.7766 12.2258 17.6798 12.2659 17.6085 12.3373L13.9968 15.9193L12.6766 14.6073C12.6052 14.536 12.5084 14.4959 12.4075 14.4959C12.3066 14.4959 12.2098 14.536 12.1384 14.6073L11.0577 15.6779C11.0225 15.7129 10.9946 15.7546 10.9756 15.8004C10.9566 15.8462 10.9468 15.8954 10.9468 15.945C10.9468 15.9947 10.9566 16.0438 10.9756 16.0897C10.9946 16.1355 11.0225 16.1771 11.0577 16.2122L13.7273 18.8643C13.7626 18.8997 13.8046 18.9278 13.8508 18.947C13.897 18.9661 13.9466 18.976 13.9966 18.976C14.0466 18.976 14.0962 18.9661 14.1424 18.947C14.1886 18.9278 14.2306 18.8997 14.2659 18.8643L14.2669 18.8653Z" fill="black"/>
</svg>
