<svg width="116" height="40" viewBox="0 0 116 40" fill="none" xmlns="http://www.w3.org/2000/svg">
<path d="M85.1094 25.6914H82.6094L82.625 23.7227H85.1094C85.6771 23.7227 86.1562 23.5924 86.5469 23.332C86.9375 23.0664 87.2344 22.6758 87.4375 22.1602C87.6406 21.6393 87.7422 21.0065 87.7422 20.2617V19.7383C87.7422 19.1758 87.6849 18.681 87.5703 18.2539C87.4557 17.8216 87.2865 17.4596 87.0625 17.168C86.8385 16.8763 86.5599 16.6576 86.2266 16.5117C85.8984 16.3659 85.5208 16.293 85.0938 16.293H82.5625V14.3164H85.0938C85.8646 14.3164 86.5677 14.4466 87.2031 14.707C87.8438 14.9674 88.3958 15.3398 88.8594 15.8242C89.3281 16.3086 89.6901 16.8815 89.9453 17.543C90.2005 18.2044 90.3281 18.9414 90.3281 19.7539V20.2617C90.3281 21.069 90.2005 21.806 89.9453 22.4727C89.6901 23.1341 89.3281 23.707 88.8594 24.1914C88.3958 24.6706 87.8464 25.0404 87.2109 25.3008C86.5755 25.5612 85.875 25.6914 85.1094 25.6914ZM84.0547 14.3164V25.6914H81.5078V14.3164H84.0547Z" fill="black"/>
<path d="M71.8042 14.3164H76.1714C77.0412 14.3164 77.7938 14.4466 78.4292 14.707C79.0698 14.9674 79.562 15.3529 79.9058 15.8633C80.2495 16.3737 80.4214 17.0039 80.4214 17.7539C80.4214 18.3789 80.3198 18.9102 80.1167 19.3477C79.9136 19.7852 79.6271 20.1471 79.2573 20.4336C78.8927 20.7201 78.4657 20.9518 77.9761 21.1289L77.148 21.582H73.4292L73.4136 19.6055H76.1792C76.5594 19.6055 76.8745 19.5378 77.1245 19.4023C77.3745 19.2669 77.562 19.0768 77.687 18.832C77.8172 18.582 77.8823 18.2904 77.8823 17.957C77.8823 17.6133 77.8172 17.3164 77.687 17.0664C77.5568 16.8164 77.3641 16.6263 77.1089 16.4961C76.8589 16.3607 76.5464 16.293 76.1714 16.293H74.3511V25.6914H71.8042V14.3164ZM78.1011 25.6914L75.5464 20.6367L78.2339 20.6289L80.8276 25.5742V25.6914H78.1011Z" fill="black"/>
<path d="M66.3428 16.4805L63.4053 25.6914H60.6865L64.8975 14.3164H66.6162L66.3428 16.4805ZM68.7803 25.6914L65.835 16.4805L65.5303 14.3164H67.2725L71.499 25.6914H68.7803ZM68.6553 21.457V23.4258H62.7256V21.457H68.6553Z" fill="black"/>
<path d="M58.0605 14.3164H60.6074V21.7852C60.6074 22.6706 60.4199 23.4154 60.0449 24.0195C59.6751 24.6237 59.1595 25.0794 58.498 25.3867C57.8366 25.694 57.071 25.8477 56.2012 25.8477C55.3262 25.8477 54.5553 25.694 53.8887 25.3867C53.2272 25.0794 52.7064 24.6237 52.3262 24.0195C51.9512 23.4154 51.7637 22.6706 51.7637 21.7852V14.3164H54.3184V21.7852C54.3184 22.2747 54.3913 22.6758 54.5371 22.9883C54.6882 23.2956 54.9043 23.5221 55.1855 23.668C55.4668 23.8086 55.8053 23.8789 56.2012 23.8789C56.597 23.8789 56.9329 23.8086 57.209 23.668C57.4902 23.5221 57.7012 23.2956 57.8418 22.9883C57.9876 22.6758 58.0605 22.2747 58.0605 21.7852V14.3164Z" fill="black"/>
<path d="M50.7319 19.6836V24.2695C50.5444 24.4831 50.258 24.7122 49.8726 24.957C49.4924 25.2018 49.0054 25.4128 48.4116 25.5898C47.8179 25.7617 47.1095 25.8477 46.2866 25.8477C45.5418 25.8477 44.8647 25.7279 44.2554 25.4883C43.646 25.2435 43.1226 24.8867 42.6851 24.418C42.2476 23.944 41.909 23.3659 41.6694 22.6836C41.4351 22.0013 41.3179 21.2201 41.3179 20.3398V19.668C41.3179 18.7878 41.4351 18.0065 41.6694 17.3242C41.9038 16.6419 42.2345 16.0664 42.6616 15.5977C43.0887 15.1237 43.5965 14.7643 44.1851 14.5195C44.7736 14.2747 45.4246 14.1523 46.1382 14.1523C47.1538 14.1523 47.9845 14.3164 48.6304 14.6445C49.2762 14.9674 49.7658 15.4154 50.0991 15.9883C50.4377 16.5612 50.646 17.2201 50.7241 17.9648H48.271C48.2189 17.5846 48.1147 17.2565 47.9585 16.9805C47.8075 16.7044 47.5913 16.4935 47.3101 16.3477C47.0288 16.1966 46.6642 16.1211 46.2163 16.1211C45.8569 16.1211 45.5314 16.1966 45.2397 16.3477C44.9533 16.4935 44.7111 16.7148 44.5132 17.0117C44.3153 17.3086 44.1642 17.6784 44.0601 18.1211C43.9559 18.5586 43.9038 19.069 43.9038 19.6523V20.3398C43.9038 20.9232 43.9559 21.4362 44.0601 21.8789C44.1694 22.3216 44.3283 22.6914 44.5366 22.9883C44.745 23.2799 45.008 23.5013 45.3257 23.6523C45.6486 23.8034 46.0236 23.8789 46.4507 23.8789C46.784 23.8789 47.0653 23.8529 47.2944 23.8008C47.5236 23.7435 47.7111 23.6732 47.8569 23.5898C48.0028 23.5013 48.1121 23.4206 48.1851 23.3477V21.457H46.1616V19.6836H50.7319Z" fill="black"/>
<path d="M34.0771 12.0171C37.174 12.1741 39.8042 14.0937 40.9883 16.7925H38.9648C37.8792 15.0023 35.9125 13.8062 33.666 13.8062C30.2452 13.8062 27.4717 16.5797 27.4717 20.0005C27.4721 23.4209 30.2455 26.1938 33.666 26.1938C35.9129 26.1938 37.8802 24.997 38.9658 23.2065H40.9883C39.7524 26.0245 36.94 27.9945 33.666 27.9946L33.2549 27.9839C29.1673 27.7769 25.8901 24.499 25.6826 20.4116L25.6719 20.0005C25.6719 15.5856 29.2511 12.0054 33.666 12.0054L34.0771 12.0171ZM33.9111 15.23C36.4349 15.3577 38.4424 17.445 38.4424 20.0005L38.4355 20.2456C38.3076 22.769 36.2212 24.7767 33.666 24.7769L33.4199 24.77C30.9778 24.6462 29.0193 22.6877 28.8955 20.2456L28.8896 20.0005C28.8896 17.3627 31.0282 15.2241 33.666 15.2241L33.9111 15.23ZM33.666 16.7241C31.8567 16.7241 30.3896 18.1911 30.3896 20.0005C30.39 21.8095 31.8569 23.2769 33.666 23.2769C35.475 23.2767 36.942 21.8094 36.9424 20.0005C36.9424 18.1912 35.4753 16.7243 33.666 16.7241ZM34.1533 22.4185H33.1787V20.6001C33.3123 20.7086 33.4805 20.7769 33.666 20.7769C33.8518 20.7768 34.0197 20.7079 34.1533 20.5991V22.4185ZM33.0654 19.5122C32.9568 19.6457 32.8897 19.814 32.8896 19.9995C32.8896 20.1848 32.9562 20.3533 33.0645 20.4868H31.2471L31.248 19.5122H33.0654ZM36.084 20.4868H34.2666C34.375 20.3533 34.4424 20.1849 34.4424 19.9995C34.4423 19.8139 34.3743 19.6458 34.2656 19.5122H36.085L36.084 20.4868ZM34.1533 19.3999C34.0197 19.2912 33.8516 19.2232 33.666 19.2231C33.4807 19.2231 33.3122 19.2906 33.1787 19.3989V17.5815H34.1533V19.3999Z" fill="black"/>
</svg>
