<svg width="108" height="16" viewBox="0 0 108 16" fill="none" xmlns="http://www.w3.org/2000/svg">
<g clip-path="url(#clip0_4158_2475)">
<mask id="mask0_4158_2475" style="mask-type:luminance" maskUnits="userSpaceOnUse" x="0" y="0" width="27" height="16">
<path d="M0.500124 0H26.5928V16H0.500124V0Z" fill="white"/>
</mask>
<g mask="url(#mask0_4158_2475)">
<path d="M22.9 0.246154H17.7307V0H22.9V0.246154ZM24.1308 2.70769V2.95385H24.6231V3.2H24.8692V3.44616L25.1975 2.95385L25.3615 3.44616L25.5239 3.19931L25.6077 3.44616H26.1V3.69231H25.8538V3.93846H25.6077V4.18462H25.1154V4.43077H24.3769V4.18462H24.1308V3.69231H22.9V3.93846H23.3923V4.18462H22.9V4.67693H22.4077V4.92308H22.9V5.16925H22.4077V5.4154H21.9154V5.66155H18.9615V5.9077H24.6231V6.15385H18.9615V6.4H25.6077V6.64615H18.9615V6.8923H26.5923V7.13845H26.3461V7.3846H26.1V7.63075H25.6077V7.8769H25.1154V8.1231H24.1308V7.8769H23.6385V7.63075H23.1462V7.3846H21.6693V7.63075H21.1769V7.8769H21.6693V8.1231H21.9154V8.36925H22.1616V8.6154H22.4077V9.35385H22.1616V9.84615H21.9154V10.0923H21.6693V10.3385H21.423V10.5846H20.6846V10.3385H20.4384V10.0923H20.1923V9.6H20.4384V9.1077H20.6846V8.86155H20.9307V8.6154H19.9461V8.36925H19.4538V8.1231H17.9769V8.36925H17.4846V8.6154H16.9923V8.86155H16.5V9.1077H16.0077V9.35385H15.5154V9.6H15.0231V9.84615H13.5462V10.0923H12.5616V10.3385H9.36155V10.5846H9.1154V10.8308H8.86925V11.0769H8.3769V11.3231H8.13075V11.5693H7.63845V11.8154H6.9V12.0616H6.16155V12.3077H5.66925V12.5539H5.17693V12.8H4.68462V13.0462H4.43846V13.2923H4.19231V13.5385H3.7V13.7846H3.20769V14.0308H2.96154V14.7692H3.20769V15.0154H3.7V15.2615H3.94616V15.5077H4.19231V15.7538H3.94616V16H1.48462V15.7538H2.46923V15.5077H1.23846V15.2615H2.22308V15.0154H0.992308V14.7692H1.73077V14.5231H0.5V14.2769H1.73077V14.0308H0.746154V13.7846H1.97693V13.5385H0.992308V13.2923H2.22308V13.0462H0.746154V12.8H2.96154V12.5539H1.48462V12.3077H3.45385V12.0616H0.992308V11.8154H3.7V11.5693H1.48462V11.3231H3.94616V11.0769H2.46923V10.8308H4.19231V10.5846H1.48462V10.3385H4.68462V10.0923H2.22308V9.84615H5.17693V9.6H0.746154V9.35385H5.66925V9.1077H1.73077V8.86155H6.16155V8.6154H1.48462V8.36925H6.4077V8.1231H3.7V7.8769H6.4077V7.63075H2.71538V7.3846H6.65385V7.13845H4.43846V6.8923H6.9V6.64615H3.45385V6.4H5.9154V6.15385H1.97693V5.9077H4.93077V5.66155H3.94616V5.4154H4.43846V5.16925H2.71538V4.92308H4.19231V4.67693H3.45385V4.43077H4.19231V4.18462H2.96154V3.93846H4.43846V3.69231H3.94616V3.44616H5.17693V3.2H3.45385V2.95385H6.16155V2.70769H5.17693V2.46154H7.3923V2.21538H5.9154V1.96923H8.13075V1.72308H6.4077V1.47693H8.6231V1.23077H6.9V0.984615H8.3769V0.73846H7.3923V0.492308H9.1154V0.73846H9.36155V0.984615H9.6077V1.96923H9.36155V2.21538H9.1154V2.46154H8.86925V2.70769H8.6231V2.95385H8.13075V3.2H7.63845V3.44616H7.14615V3.69231H5.9154V3.93846H5.42308V4.18462H5.17693V4.43077H4.93077V4.92308H5.17693V5.16925H5.42308V5.4154H5.9154V5.66155H6.4077V5.9077H14.0385V5.66155H8.13075V5.4154H15.5154V5.16925H7.14615V4.92308H16.0077V4.67693H11.0846V4.43077H16.9923V4.18462H10.5923V3.93846H16.2538V3.69231H13.3V3.44616H19.7V3.2H12.5616V2.95385H18.7154V2.70769H14.2846V2.46154H20.4384V2.21538H13.5462V1.96923H20.1923V1.72308H14.0385V1.47693H20.1923V1.23077H15.5154V0.984615H21.423V0.73846H17.2384V0.492308H24.1308V0.73846H22.6539V0.984615H24.8692V1.23077H24.6231V1.47693H26.3461V1.72308H21.6693V1.96923H26.5923V2.21538H26.3461V2.46154H26.1L25.6077 3.2L25.3615 2.46154H24.6231V2.70769H24.1308ZM22.6539 1.47693H23.8846V1.23077H22.6539V1.47693ZM9.36155 6.64615H8.3769V6.8923H9.36155V6.64615ZM12.8077 6.15385H7.3923V6.4H12.8077V6.15385ZM22.1616 2.46154H23.3923V2.21538H22.1616V2.46154ZM20.4384 5.16925H18.7154V5.4154H20.4384V5.16925ZM20.6846 4.67693H19.7V4.92308H20.6846V4.67693ZM20.6846 4.18462H18.9615V4.43077H20.6846V4.18462ZM20.1923 3.69231H18.4692V3.93846H20.1923V3.69231ZM22.6539 3.2H22.1616V3.44616H22.6539V3.2ZM23.3923 2.70769H22.1616V2.95385H23.3923V2.70769Z" fill="black"/>
</g>
<path d="M103.718 12.2727V5.10849H101.109V3.7207H107.905V5.10849H105.296V12.2727H103.718Z" fill="black"/>
<path d="M94.3306 12.2727V3.7207H100.072V5.10849H95.9201V7.14864H99.2771V8.54829H95.9201V12.2727H94.3306Z" fill="black"/>
<path d="M85.3037 12.2727L88.5892 3.7207H90.2262L93.5117 12.2727H91.8037L91.0917 10.3512H87.6877L86.9762 12.2727H85.3037ZM88.1857 8.98714H90.5817L89.3837 5.73714L88.1857 8.98714Z" fill="black"/>
<path d="M77.6738 12.2727V3.7207H81.3508C83.0468 3.7207 84.1143 4.70519 84.1143 6.29459C84.1143 7.23164 83.6278 8.05009 82.8213 8.46524C83.3908 8.73804 83.6753 9.17694 83.8413 9.91234L84.1263 11.2645C84.1973 11.6085 84.3158 12.0236 84.4703 12.2727H82.7503C82.6198 12.0829 82.5368 11.7864 82.5013 11.5373L82.2758 10.2207C82.1098 9.25994 81.5758 8.84479 80.3543 8.84479H79.2628V12.2727H77.6738ZM81.1253 7.45704C81.9793 7.45704 82.4893 7.01814 82.4893 6.29459C82.4893 5.54734 81.9793 5.12034 81.1253 5.12034H79.2628V7.45704H81.1253Z" fill="black"/>
<path d="M72.8051 12.3673C70.5511 12.3673 68.5586 10.8965 68.5586 7.99047C68.5586 5.09632 70.5751 3.62549 72.8051 3.62549C74.8331 3.62549 76.3871 4.74046 76.6241 6.69757H74.9401C74.7621 5.68937 73.8961 5.01327 72.7931 5.01327C71.3221 5.01327 70.1836 6.06892 70.1836 7.99047C70.1836 9.92387 71.3106 10.9677 72.7931 10.9677C73.9201 10.9677 74.7501 10.3509 74.9401 9.27152H76.6361C76.3276 11.3354 74.7381 12.3673 72.8051 12.3673Z" fill="black"/>
<path d="M64.5841 12.3556C62.6981 12.3556 61.3106 11.205 61.2036 9.37839H62.7696C62.8406 10.2798 63.6116 10.9678 64.5841 10.9678C65.4976 10.9678 66.1261 10.5289 66.1261 9.87659C66.1261 9.29534 65.6871 8.96324 65.0941 8.79719L63.6946 8.40574C62.5201 8.07364 61.5356 7.46869 61.5356 5.96234C61.5356 4.5864 62.7696 3.61377 64.5011 3.61377C66.3041 3.61377 67.5496 4.59826 67.6561 6.16394H66.0906C65.9836 5.53529 65.4146 5.01339 64.5011 5.01339C63.6591 5.01339 63.1606 5.35739 63.1606 5.95044C63.1606 6.47234 63.5406 6.72144 64.1216 6.88749L65.5211 7.27894C66.7191 7.62289 67.7391 8.19224 67.7391 9.84099C67.7391 11.3592 66.4936 12.3556 64.5841 12.3556Z" fill="black"/>
<path d="M53.1768 12.2727V3.7207H54.8848L57.7673 8.37034C58.3008 9.24809 58.6568 9.94789 58.6568 9.94789C58.6568 9.94789 58.6093 9.16504 58.6093 8.13314V3.7207H60.1868V12.2727H58.4788L55.5963 7.64679C55.0628 6.75719 54.7068 6.06924 54.7068 6.06924C54.7068 6.06924 54.7663 6.85209 54.7663 7.88404V12.2727H53.1768Z" fill="black"/>
<path d="M47.8333 12.3673C45.3306 12.3673 43.5039 10.5169 43.5039 7.99047C43.5039 5.47587 45.3306 3.62549 47.8333 3.62549C50.3123 3.62549 52.1387 5.46402 52.1387 7.99047C52.1387 10.5288 50.3123 12.3673 47.8333 12.3673ZM47.8333 10.9677C49.399 10.9677 50.5137 9.71037 50.5137 7.99047C50.5137 6.28242 49.399 5.01327 47.8333 5.01327C46.2557 5.01327 45.1289 6.28242 45.1289 7.99047C45.1289 9.71037 46.2557 10.9677 47.8333 10.9677Z" fill="black"/>
<path d="M38.9453 12.2727V10.8731H40.2388V5.10849H38.9453V3.7207H43.1216V5.10849H41.8163V10.8731H43.1216V12.2727H38.9453Z" fill="black"/>
<path d="M32.3091 12.2727V3.7207H33.8985V10.8612H37.9077V12.2727H32.3091Z" fill="black"/>
</g>
<defs>
<clipPath id="clip0_4158_2475">
<rect width="107.5" height="16" fill="white" transform="translate(0.5)"/>
</clipPath>
</defs>
</svg>
