<svg width="106" height="18" viewBox="0 0 106 18" fill="none" xmlns="http://www.w3.org/2000/svg">
<g clip-path="url(#clip0_4158_2493)">
<path d="M41.9346 14.1607H39.7222V13.4415C39.3215 13.8977 38.6711 14.3125 37.7586 14.3125C36.2654 14.3125 35.2832 13.2889 35.2832 11.6986V6.87305H37.4957V11.1743C37.4957 11.9076 37.8134 12.3771 38.5326 12.3771C39.1415 12.3771 39.7222 11.9483 39.7222 11.0913V6.87305H41.9346V14.1615V14.1607Z" fill="black"/>
<path d="M42.9165 12.1284C42.9165 10.6211 44.189 10.0122 45.7237 9.79155L47.3554 9.51532V9.39086C47.3554 8.85163 47.0651 8.50571 46.3459 8.50571C45.7096 8.50571 45.3778 8.78201 45.2393 9.37678L43.1231 9.05902C43.4408 7.77317 44.5889 6.72217 46.4421 6.72217C48.2954 6.72217 49.5264 7.59317 49.5264 9.29462V12.1018C49.5264 12.4751 49.6649 12.5862 50.0937 12.5307V14.1624C48.8213 14.3698 47.9643 14.135 47.591 13.5121C47.1066 14.0098 46.3881 14.3002 45.4334 14.3002C43.9675 14.3002 42.9165 13.415 42.9165 12.1292V12.1284ZM47.3554 10.9389L46.0829 11.1736C45.5022 11.2707 45.0734 11.464 45.0734 11.9758C45.0734 12.4321 45.4193 12.6809 45.9444 12.6809C46.6777 12.6809 47.3554 12.2936 47.3554 11.5469V10.9381V10.9389Z" fill="black"/>
<path d="M51.2498 6.87321H53.4622V7.60652C53.8629 7.13621 54.5406 6.72144 55.4673 6.72144C56.9605 6.72144 57.9012 7.75836 57.9012 9.34944V14.1624H55.6887V9.98567C55.6887 9.25236 55.3843 8.71314 54.6651 8.71314C54.0562 8.71314 53.4614 9.14205 53.4614 9.99898V14.1617H51.249V6.87321H51.2498Z" fill="black"/>
<path d="M59.6673 8.69892H58.7407V6.87308H59.6673V4.85474H61.8523V6.87385H63.2767V8.69969H61.8523V11.6455C61.8523 12.2543 62.1701 12.3646 62.7234 12.3646C62.9863 12.3646 63.1108 12.3505 63.3596 12.3232V14.1349C62.9723 14.1905 62.5575 14.2319 62.0323 14.2319C60.4554 14.2319 59.6673 13.7061 59.6673 12.2128V8.70046V8.69892Z" fill="black"/>
<path d="M65.3378 11.6026C65.9324 12.253 66.8729 12.6396 67.6611 12.6396C68.2422 12.6396 68.7263 12.4463 68.7263 12.0589C68.7263 11.5752 68.2422 11.5197 67.0806 11.3123C65.8778 11.0775 64.5911 10.759 64.5911 9.18285C64.5911 7.70292 65.9054 6.7207 67.7029 6.7207C69.0169 6.7207 70.1779 7.21847 70.7873 7.88215L69.6803 9.30647C69.1274 8.72577 68.4081 8.40724 67.6887 8.40724C67.1494 8.40724 66.8035 8.61462 66.8035 8.94647C66.8035 9.34716 67.2323 9.4027 68.1175 9.56862C69.4315 9.83162 70.8972 10.1493 70.8972 11.7952C70.8972 13.441 69.4315 14.312 67.5782 14.312C66.3059 14.312 64.8674 13.8832 64.1904 13.0951L65.3384 11.6019L65.3378 11.6026Z" fill="black"/>
<path d="M72.4181 8.69892H71.4917V6.87308H72.4181V4.85474H74.6031V6.87385H76.0277V8.69969H74.6031V11.6455C74.6031 12.2543 74.9207 12.3646 75.4742 12.3646C75.7371 12.3646 75.8618 12.3505 76.1106 12.3232V14.1349C75.723 14.1905 75.3083 14.2319 74.7831 14.2319C73.2068 14.2319 72.4181 13.7061 72.4181 12.2128V8.70046V8.69892Z" fill="black"/>
<path d="M77.0109 12.1284C77.0109 10.6211 78.2838 10.0122 79.8183 9.79155L81.4498 9.51532V9.39086C81.4498 8.85163 81.1599 8.50571 80.4405 8.50571C79.8041 8.50571 79.4724 8.78201 79.3342 9.37678L77.2179 9.05902C77.5355 7.77317 78.6836 6.72217 80.537 6.72217C82.3897 6.72217 83.6208 7.59317 83.6208 9.29462V12.1018C83.6208 12.4751 83.7596 12.5862 84.1884 12.5307V14.1624C82.9162 14.3698 82.0593 14.135 81.6851 13.5121C81.201 14.0098 80.4817 14.3002 79.527 14.3002C78.0613 14.3002 77.0103 13.415 77.0103 12.1292L77.0109 12.1284ZM81.4498 10.9389L80.1776 11.1736C79.5971 11.2707 79.1677 11.464 79.1677 11.9758C79.1677 12.4321 79.5142 12.6809 80.0388 12.6809C80.7723 12.6809 81.4492 12.2936 81.4492 11.5469V10.9381L81.4498 10.9389Z" fill="black"/>
<path d="M87.4285 14.1609H85.2158V6.87321H87.4285V7.60652C87.829 7.13621 88.4937 6.72144 89.4201 6.72144C90.2912 6.72144 91.0105 7.09474 91.4252 7.7169C91.8398 7.2606 92.5592 6.72144 93.679 6.72144C95.1589 6.72144 96.1412 7.75836 96.1412 9.34944V14.1624H93.9285V9.98567C93.9285 9.25236 93.6385 8.71314 92.9333 8.71314C92.3528 8.71314 91.7852 9.14205 91.7852 9.99898V14.1617H89.5725V9.9849C89.5725 9.25159 89.296 8.71236 88.5773 8.71236C87.9968 8.71236 87.4292 9.14121 87.4292 9.99821V14.1609H87.4285Z" fill="black"/>
<path d="M99.4562 13.4424V16.5956H97.2441V6.87321H99.4562V7.60652C99.8715 7.08144 100.563 6.72144 101.434 6.72144C103.439 6.72144 104.573 8.43613 104.573 10.5249C104.573 12.6137 103.439 14.3143 101.434 14.3143C100.563 14.3143 99.8715 13.9551 99.4562 13.4432V13.4424ZM99.4421 10.7182C99.4421 11.8107 100.037 12.4329 100.867 12.4329C101.835 12.4329 102.346 11.6448 102.346 10.5241C102.346 9.40344 101.835 8.61536 100.867 8.61536C100.037 8.61536 99.4421 9.22344 99.4421 10.33V10.7174V10.7182Z" fill="black"/>
<path d="M25.0542 5.28676C22.9959 7.34501 22.9967 10.6821 25.0542 12.7395C27.1124 14.7978 30.4487 14.7978 32.5069 12.7395C34.5652 10.6813 34.5652 7.34501 32.5069 5.28676C30.4495 3.22928 27.1116 3.22928 25.0542 5.28676ZM30.9472 11.1798C29.7505 12.3764 27.8112 12.3764 26.6139 11.1798C25.4172 9.98317 25.4172 8.04386 26.6139 6.84647C27.8105 5.64911 29.7505 5.64989 30.9472 6.84647C32.1438 8.04309 32.1438 9.98317 30.9472 11.1798Z" fill="black"/>
<path d="M29.5418 8.24707L27.9951 9.79378L32.8162 14.6149L34.3629 13.0682L29.5418 8.24707Z" fill="black"/>
<path d="M17.1761 8.99949C17.1761 7.59021 16.7708 6.2038 15.9959 5.0233L18.8505 2.15393L16.7112 0L13.8566 2.86937C11.4518 1.29106 8.3404 1.29106 5.93557 2.86937L3.07451 0L0.928711 2.15393L3.78327 5.0233C2.21185 7.44281 2.21185 10.5637 3.78327 12.9832L0.928711 15.846L3.07451 18L5.92907 15.1306C8.33385 16.709 11.4453 16.709 13.8501 15.1306L16.7047 18L18.8505 15.846L15.9959 12.9767C16.7708 11.7962 17.1837 10.4174 17.1761 9.00051V8.99949ZM5.64188 8.99949C5.64188 7.25856 6.68877 5.68672 8.29701 5.03848C9.90531 4.38916 11.7487 4.78049 12.9506 6.03469C14.1525 7.28891 14.4776 9.15557 13.7623 10.7414L10.9598 7.92302L8.82049 10.077L11.623 12.8954C10.3106 13.4851 8.78365 13.3745 7.57418 12.5853C6.37232 11.7962 5.64188 10.4455 5.64188 9.00051V8.99949Z" fill="black"/>
</g>
<defs>
<clipPath id="clip0_4158_2493">
<rect width="104.143" height="18" fill="white" transform="translate(0.928711)"/>
</clipPath>
</defs>
</svg>
