<svg width="177" height="36" viewBox="0 0 177 36" fill="none" xmlns="http://www.w3.org/2000/svg">
<path d="M164.154 35.193C162.62 35.193 161.101 34.9895 159.598 34.5823C158.095 34.1439 156.717 33.4706 155.464 32.5624C154.211 31.6229 153.162 30.4329 152.317 28.9923C151.502 27.5204 151.017 25.7667 150.86 23.7311H156.497C156.748 25.3283 157.265 26.5809 158.048 27.4891C158.862 28.3973 159.817 29.0393 160.913 29.4151C162.04 29.7596 163.152 29.9318 164.248 29.9318C165.47 29.9318 166.55 29.7439 167.49 29.3681C168.46 28.9923 169.212 28.4599 169.744 27.771C170.308 27.0507 170.59 26.2208 170.59 25.2813C170.59 24.3105 170.324 23.4493 169.791 22.6977C169.259 21.9147 168.116 21.3667 166.362 21.0535L160.772 20.0201C158.079 19.519 155.965 18.4543 154.43 16.8258C152.927 15.166 152.176 13.2087 152.176 10.9539C152.176 8.88701 152.692 7.13327 153.726 5.69271C154.759 4.25214 156.153 3.1404 157.907 2.35748C159.66 1.57456 161.586 1.18311 163.685 1.18311C165.877 1.18311 167.85 1.55891 169.603 2.31051C171.357 3.06211 172.782 4.22082 173.878 5.78666C174.974 7.32117 175.632 9.30978 175.851 11.7525H170.12C169.932 10.3432 169.509 9.26281 168.852 8.51121C168.225 7.72829 167.458 7.18025 166.55 6.86708C165.673 6.55392 164.765 6.39733 163.825 6.39733C162.949 6.39733 162.04 6.53826 161.101 6.82011C160.161 7.10196 159.378 7.57171 158.752 8.22936C158.126 8.85569 157.813 9.7169 157.813 10.813C157.813 11.7525 158.157 12.598 158.846 13.3496C159.566 14.0699 160.709 14.571 162.275 14.8528L167.443 15.7923C170.198 16.2934 172.359 17.2799 173.925 18.7518C175.522 20.1923 176.321 22.3062 176.321 25.0934C176.321 26.7532 175.961 28.2094 175.24 29.4621C174.551 30.6834 173.628 31.7325 172.469 32.6094C171.31 33.4549 170.011 34.0969 168.57 34.5354C167.129 34.9738 165.657 35.193 164.154 35.193Z" fill="#111111"/>
<path d="M132.487 35.193C129.23 35.193 126.365 34.4727 123.891 33.0322C121.417 31.5916 119.475 29.603 118.066 27.0663C116.688 24.5297 115.999 21.5703 115.999 18.1881C115.999 14.8372 116.688 11.8934 118.066 9.35676C119.475 6.78879 121.417 4.78452 123.891 3.34396C126.365 1.90339 129.23 1.18311 132.487 1.18311C135.776 1.18311 138.641 1.90339 141.084 3.34396C143.558 4.78452 145.484 6.78879 146.862 9.35676C148.271 11.8934 148.975 14.8372 148.975 18.1881C148.975 21.5703 148.271 24.5297 146.862 27.0663C145.484 29.603 143.558 31.5916 141.084 33.0322C138.641 34.4727 135.776 35.193 132.487 35.193ZM132.534 29.6969C134.601 29.6969 136.402 29.2429 137.936 28.3347C139.471 27.3952 140.661 26.0642 141.506 24.3418C142.352 22.6194 142.775 20.5681 142.775 18.1881C142.775 15.808 142.352 13.7568 141.506 12.0343C140.661 10.3119 139.471 8.99662 137.936 8.08843C136.402 7.14893 134.601 6.67918 132.534 6.67918C130.467 6.67918 128.651 7.14893 127.085 8.08843C125.551 8.99662 124.361 10.3119 123.515 12.0343C122.669 13.7568 122.247 15.808 122.247 18.1881C122.247 20.5681 122.669 22.6194 123.515 24.3418C124.361 26.0642 125.551 27.3952 127.085 28.3347C128.651 29.2429 130.467 29.6969 132.534 29.6969Z" fill="#111111"/>
<path d="M106.608 34.6291V0.807129H112.715V34.6291H106.608Z" fill="#111111"/>
<path d="M88.5374 35.1929C86.7837 35.1929 85.2648 34.8797 83.9809 34.2534C82.7282 33.627 81.773 32.7815 81.1154 31.7167C80.4577 30.652 80.1289 29.4776 80.1289 28.1936C80.1289 25.7509 81.0058 23.8719 82.7595 22.5566C84.5132 21.21 86.815 20.5367 89.6648 20.5367C91.0115 20.5367 92.1702 20.6306 93.141 20.8185C94.1118 21.0064 94.9104 21.21 95.5367 21.4292V20.3018C95.5367 18.6733 95.067 17.4833 94.1275 16.7317C93.2193 15.9801 92.0292 15.6043 90.5574 15.6043C89.5239 15.6043 88.6001 15.8235 87.7858 16.2619C86.9716 16.6691 86.4549 17.405 86.2357 18.4698H80.4577C80.6456 16.81 81.2093 15.4164 82.1488 14.289C83.0883 13.1303 84.2784 12.2534 85.7189 11.6584C87.1908 11.0634 88.8036 10.7659 90.5574 10.7659C94.0335 10.7659 96.7424 11.5958 98.684 13.2555C100.657 14.9153 101.643 17.2641 101.643 20.3018V25.563C101.643 26.753 101.706 27.6299 101.831 28.1936C101.988 28.7573 102.223 29.1174 102.536 29.274C102.849 29.4306 103.272 29.5089 103.804 29.5089H103.992V34.6292H102.677C101.017 34.6292 99.6392 34.41 98.5431 33.9715C97.447 33.5331 96.6485 32.6719 96.1474 31.3879C95.3645 32.484 94.331 33.3922 93.047 34.1125C91.7631 34.8327 90.2599 35.1929 88.5374 35.1929ZM89.8997 30.5424C90.9018 30.5424 91.7474 30.3231 92.4364 29.8847C93.1566 29.415 93.7517 28.7886 94.2214 28.0057C94.6912 27.1915 95.02 26.3146 95.2079 25.3751C94.5502 25.1872 93.783 25.015 92.9061 24.8584C92.0606 24.6705 91.1994 24.5765 90.3225 24.5765C89.1011 24.5765 88.1147 24.8584 87.3631 25.4221C86.6428 25.9545 86.2826 26.7061 86.2826 27.6769C86.2826 28.5224 86.5958 29.2114 87.2221 29.7438C87.8798 30.2762 88.7723 30.5424 89.8997 30.5424Z" fill="#111111"/>
<path d="M62.9651 34.6291L50.9395 1.74658H57.469L66.6761 28.3814L75.9771 1.74658H82.4127L70.3871 34.6291H62.9651Z" fill="#111111"/>
<path d="M26.4191 1.14453C26.6307 1.14453 26.8401 1.15373 27.0473 1.17146H39.6898L32.926 12.7586L32.9207 12.7496C31.6255 15.0699 29.199 16.6319 26.4191 16.6319C24.0826 16.6319 21.9957 15.5284 20.6204 13.7986L25.0459 21.3798C25.9256 22.8869 25.9256 24.7511 25.0459 26.2583L20.0134 34.8795L0.336914 1.17146H10.4714C12.1918 1.17146 13.7828 2.08495 14.6501 3.5707L19.5004 11.8797C19.1267 10.9593 18.92 9.94877 18.92 8.88829C18.92 4.61156 22.2775 1.14453 26.4191 1.14453Z" fill="#FC5F2B"/>
</svg>
