<svg width="398" height="206" viewBox="0 0 398 206" fill="none" xmlns="http://www.w3.org/2000/svg">
<path d="M127.572 153.671C122.374 153.671 117.872 152.743 114.065 150.886C110.352 149.029 107.521 146.523 105.571 143.367C103.622 140.21 102.647 136.729 102.647 132.923C102.647 125.682 105.246 120.112 110.445 116.213C115.644 112.222 122.467 110.226 130.914 110.226C134.906 110.226 138.341 110.504 141.219 111.061C144.096 111.618 146.464 112.222 148.32 112.871V109.53C148.32 104.702 146.928 101.175 144.143 98.9467C141.451 96.7188 137.923 95.6048 133.56 95.6048C130.497 95.6048 127.758 96.2546 125.344 97.5543C122.931 98.7611 121.399 100.943 120.749 104.099H103.622C104.179 99.1788 105.85 95.0478 108.635 91.7059C111.42 88.2711 114.947 85.6718 119.218 83.908C123.581 82.1442 128.362 81.2623 133.56 81.2623C143.864 81.2623 151.894 83.7224 157.65 88.6424C163.498 93.5625 166.422 100.525 166.422 109.53V125.125C166.422 128.653 166.608 131.252 166.979 132.923C167.444 134.594 168.14 135.662 169.068 136.126C169.996 136.59 171.25 136.822 172.828 136.822H173.385V152H169.486C164.566 152 160.481 151.35 157.232 150.051C153.983 148.751 151.616 146.198 150.131 142.392C147.81 145.641 144.746 148.333 140.94 150.468C137.134 152.603 132.678 153.671 127.572 153.671ZM131.611 139.885C134.581 139.885 137.088 139.236 139.13 137.936C141.265 136.544 143.029 134.687 144.421 132.366C145.814 129.952 146.789 127.353 147.346 124.568C145.396 124.011 143.122 123.501 140.522 123.037C138.016 122.48 135.463 122.201 132.864 122.201C129.243 122.201 126.319 123.037 124.091 124.708C121.956 126.286 120.889 128.514 120.889 131.391C120.889 133.898 121.817 135.94 123.674 137.518C125.623 139.096 128.269 139.885 131.611 139.885ZM181.139 152V51.7419H199.241V152H181.139ZM257.853 153.671C248.198 153.671 239.704 151.536 232.37 147.266C225.037 142.995 219.281 137.101 215.104 129.581C211.019 122.062 208.977 113.289 208.977 103.263C208.977 93.3304 211.019 84.6043 215.104 77.0849C219.281 69.4727 225.037 63.5315 232.37 59.2612C239.704 54.991 248.198 52.8559 257.853 52.8559C267.6 52.8559 276.094 54.991 283.335 59.2612C290.668 63.5315 296.378 69.4727 300.462 77.0849C304.64 84.6043 306.728 93.3304 306.728 103.263C306.728 113.289 304.64 122.062 300.462 129.581C296.378 137.101 290.668 142.995 283.335 147.266C276.094 151.536 267.6 153.671 257.853 153.671ZM257.992 137.379C264.119 137.379 269.456 136.033 274.005 133.341C278.554 130.556 282.082 126.611 284.588 121.505C287.094 116.399 288.348 110.319 288.348 103.263C288.348 96.2082 287.094 90.1277 284.588 85.022C282.082 79.9163 278.554 76.0173 274.005 73.3252C269.456 70.5403 264.119 69.1478 257.992 69.1478C251.865 69.1478 246.481 70.5403 241.839 73.3252C237.29 76.0173 233.763 79.9163 231.256 85.022C228.75 90.1277 227.497 96.2082 227.497 103.263C227.497 110.319 228.75 116.399 231.256 121.505C233.763 126.611 237.29 130.556 241.839 133.341C246.481 136.033 251.865 137.379 257.992 137.379ZM351.722 153.671C347.173 153.671 342.671 153.068 338.215 151.861C333.759 150.561 329.674 148.565 325.961 145.873C322.248 143.088 319.138 139.561 316.631 135.29C314.218 130.927 312.779 125.729 312.315 119.695H329.024C329.767 124.429 331.299 128.142 333.619 130.834C336.033 133.527 338.864 135.43 342.114 136.544C345.455 137.565 348.751 138.075 352 138.075C355.621 138.075 358.823 137.518 361.608 136.404C364.486 135.29 366.714 133.712 368.292 131.67C369.963 129.535 370.798 127.075 370.798 124.29C370.798 121.412 370.009 118.859 368.431 116.631C366.853 114.31 363.465 112.686 358.266 111.758L341.696 108.694C333.712 107.209 327.446 104.052 322.897 99.2252C318.441 94.3052 316.214 88.5032 316.214 81.8193C316.214 75.6924 317.745 70.4939 320.809 66.2236C323.872 61.9534 328.003 58.6578 333.202 56.337C338.4 54.0163 344.109 52.8559 350.329 52.8559C356.827 52.8559 362.676 53.9698 367.874 56.1978C373.073 58.4258 377.297 61.8605 380.546 66.5021C383.795 71.0509 385.744 76.9457 386.394 84.1865H369.406C368.849 80.0091 367.596 76.8064 365.646 74.5785C363.79 72.2577 361.515 70.6331 358.823 69.7048C356.224 68.7765 353.532 68.3123 350.747 68.3123C348.148 68.3123 345.455 68.7301 342.671 69.5656C339.886 70.401 337.565 71.7935 335.708 73.743C333.852 75.5996 332.923 78.1525 332.923 81.4016C332.923 84.1865 333.944 86.693 335.987 88.9209C338.122 91.0561 341.51 92.5414 346.152 93.3769L361.469 96.1618C369.638 97.6471 376.043 100.571 380.685 104.934C385.419 109.205 387.787 115.471 387.787 123.733C387.787 128.653 386.719 132.97 384.584 136.683C382.542 140.303 379.803 143.413 376.368 146.012C372.934 148.519 369.081 150.422 364.811 151.722C360.541 153.021 356.178 153.671 351.722 153.671Z" fill="#111111"/>
<path d="M77.719 55.6741C78.3421 55.6741 78.9591 55.7012 79.5691 55.7534H116.807L96.8847 89.8826L96.8689 89.8561C93.054 96.6904 85.907 101.291 77.719 101.291C70.8368 101.291 64.6901 98.0407 60.6392 92.9458L73.6742 115.276C76.2655 119.715 76.2655 125.206 73.6742 129.645L58.8512 155.038L0.895508 55.7534H30.746C35.8132 55.7534 40.4995 58.444 43.0541 62.8202L57.3403 87.2939C56.2397 84.583 55.6308 81.6064 55.6307 78.4828C55.6307 65.886 65.52 55.6741 77.719 55.6741Z" fill="#FC5F2B"/>
</svg>
