<svg width="116" height="40" viewBox="0 0 116 40" fill="none" xmlns="http://www.w3.org/2000/svg">
<mask id="mask0_4280_677" style="mask-type:luminance" maskUnits="userSpaceOnUse" x="4" y="10" width="108" height="20">
<path d="M112 10H4V30H112V10Z" fill="white"/>
</mask>
<g mask="url(#mask0_4280_677)">
<path d="M4.66041 23.4522L4 13.9745L6.25706 10L8.98775 16.5377L11.1116 19.0582L9.02005 19.048L8.33838 20.9418L10.4575 23.4522H4.66041Z" fill="black"/>
<path d="M14.7909 16.5479L15.4505 26.0248L13.1935 30L10.4628 23.4616L8.33887 20.9419L10.4312 20.9512L11.1121 19.0582L8.99376 16.5479H14.7909Z" fill="black"/>
<path d="M27.7044 19.6963V16.5547H28.2608V23.4512H27.7044V20.3478H21.3737V23.4512H20.8174V16.5547H21.3737V19.6963H27.7044Z" fill="black"/>
<path d="M33.7404 20.4918L37.282 16.5547H38.0259L33.9776 21.1527H33.961V23.452H33.4046V21.1527H33.3881L29.2822 16.5547H30.0348L33.6253 20.4918H33.7396H33.7404Z" fill="black"/>
<path d="M48.2344 16.5547H55.637V17.2062H48.7907V19.6776H55.4405V20.3291H48.7907V22.8005H55.637V23.452H48.2344V16.5555V16.5547Z" fill="black"/>
<path d="M64.7478 23.4512H64.0608L62.8913 21.4586H57.6478V23.4512H57.0918V16.5547H63.0133C63.2693 16.5547 63.5083 16.6092 63.7288 16.7174C63.9493 16.8264 64.1433 16.9696 64.3098 17.1486C64.4758 17.3276 64.6068 17.5331 64.7023 17.7667C64.7973 17.9994 64.8453 18.2376 64.8453 18.4804V19.4861C64.8453 19.6908 64.8083 19.8979 64.7353 20.1088C64.6618 20.3198 64.5633 20.5144 64.4403 20.6934C64.3173 20.8724 64.1758 21.0242 64.0148 21.1488C63.8543 21.2733 63.6888 21.355 63.5198 21.3932L64.7468 23.4528L64.7478 23.4512ZM64.2898 19.304V18.6525C64.2898 18.461 64.2528 18.2757 64.1798 18.0967C64.1063 17.9177 64.0048 17.7628 63.8768 17.632C63.7483 17.5012 63.5963 17.3977 63.4193 17.3206C63.2418 17.2444 63.0493 17.2054 62.8423 17.2054H57.6488V20.807H62.8423C63.1093 20.807 63.3338 20.7588 63.5168 20.663C63.6998 20.5673 63.8478 20.4459 63.9628 20.2988C64.0773 20.1516 64.1608 19.989 64.2128 19.8099C64.2648 19.6309 64.2908 19.462 64.2908 19.3024L64.2898 19.304Z" fill="black"/>
<path d="M44.9713 21.4586H39.7282V23.4512H39.1719V16.5547H45.0935C45.3496 16.5547 45.5884 16.6092 45.8091 16.7174C46.0297 16.8264 46.2236 16.9696 46.3899 17.1486C46.5562 17.3276 46.687 17.5331 46.7823 17.7667C46.8777 17.9994 46.9258 18.2376 46.9258 18.4804V19.4861C46.9258 19.6908 46.8887 19.8979 46.8154 20.1088C46.7421 20.3198 46.6436 20.5144 46.5207 20.6934C46.3978 20.8724 46.2559 21.0242 46.0951 21.1488C45.9344 21.2733 45.7689 21.355 45.6002 21.3932M46.3694 19.304V18.6525C46.3694 18.461 46.3323 18.2757 46.259 18.0967C46.1858 17.9177 46.0841 17.7628 45.9564 17.632C45.828 17.5012 45.6759 17.3977 45.4986 17.3206C45.3212 17.2444 45.1289 17.2054 44.9217 17.2054H39.7282V20.807H44.9217C45.1888 20.807 45.4134 20.7588 45.5963 20.663C45.7791 20.5673 45.9273 20.4459 46.0423 20.2988C46.1566 20.1516 46.2401 19.989 46.2922 19.8099C46.3442 19.6309 46.3702 19.462 46.3702 19.3024L46.3694 19.304Z" fill="black"/>
<path d="M72.6471 21.6026V16.5547H73.9966V23.4512H72.3036L67.7401 18.4127V23.4512H66.3906V16.5547H68.0921L72.6481 21.6026H72.6471Z" fill="black"/>
<path d="M83.8397 23.4512H82.2852L81.5737 22.1583H77.1162L76.4127 23.4512H74.8662L78.4812 16.5547H80.2152L83.8387 23.4512H83.8397ZM79.2592 18.1348L77.9012 20.5774H80.8047L79.4302 18.1348H79.2582H79.2592Z" fill="black"/>
<path d="M90.5048 16.5547V18.1356H87.2333V23.452H85.8843V18.1356H82.6533V16.5547H90.5048Z" fill="black"/>
<path d="M91.7236 16.5547H93.0731V23.4512H91.7236V16.5547Z" fill="black"/>
<path d="M98.8479 22.0719H99.0929L102.324 16.5547H103.902L99.9519 23.4512H97.9974L94.0469 16.5547H95.6334L98.8479 22.0719Z" fill="black"/>
<path d="M104.598 16.5547H112V18.1356H105.948V19.2184H111.804V20.7891H105.948V21.8719H112V23.4528H104.598V16.5563V16.5547Z" fill="black"/>
</g>
</svg>
