<svg width="288" height="38" viewBox="0 0 288 38" fill="none" xmlns="http://www.w3.org/2000/svg">
<path d="M151.162 0.140625C151.399 0.140625 151.633 0.15091 151.865 0.170738H166L158.438 13.1262L158.432 13.1161C156.983 15.7104 154.27 17.4569 151.162 17.4569C148.55 17.4569 146.216 16.223 144.679 14.289L149.627 22.7654C150.61 24.4506 150.61 26.5349 149.627 28.22L144 37.8593L122 0.170738H133.331C135.255 0.170738 137.034 1.1921 138.003 2.85329L143.426 12.1435C143.009 11.1145 142.778 9.98454 142.778 8.79883C142.778 4.01707 146.531 0.140625 151.162 0.140625Z" fill="black"/>
</svg>
