<svg width="200" height="84" viewBox="0 0 200 84" fill="none" xmlns="http://www.w3.org/2000/svg">
<path d="M41.5332 54.7363C41.5332 55.1216 41.7387 55.4775 42.0723 55.67L61.9092 67.1228C62.2428 67.3153 62.6538 67.3153 62.9874 67.1228L82.8253 55.6695C83.1589 55.477 83.3644 55.1208 83.3644 54.7356V43.0513C83.3644 42.666 83.1589 42.3101 82.8253 42.1176L77.3662 38.9653L83.3641 35.5024V30.1247C83.3641 29.7394 83.1586 29.3835 82.825 29.1907L62.9884 17.7381C62.6548 17.5456 62.2438 17.5456 61.9102 17.7381L42.0723 29.1915C41.7387 29.384 41.5332 29.7401 41.5332 30.1252V41.8094C41.5332 42.1947 41.7387 42.5506 42.0723 42.7431L47.5314 45.8954L41.5332 49.3585V54.7363ZM61.9085 54.1979C62.2421 54.3907 62.6533 54.3907 62.9869 54.1979L67.6441 51.5086V44.5784L62.9869 47.2673C62.6533 47.4598 62.2423 47.4598 61.9087 47.2673L48.0724 39.279C47.7388 39.0865 47.5333 38.7304 47.5333 38.3451V33.59C47.5333 33.2047 47.7388 32.8488 48.0724 32.656L61.9102 24.6668C62.2438 24.4743 62.655 24.4743 62.9886 24.6668L76.8234 32.656C77.157 32.8486 77.3625 33.2047 77.3625 33.5897V38.9626L62.9896 30.6628C62.656 30.47 62.2448 30.47 61.9112 30.6628L57.254 33.3521V40.2823L61.9112 37.5934C62.2448 37.4009 62.6558 37.4009 62.9894 37.5934L76.8256 45.5817C77.1592 45.7742 77.3647 46.1303 77.3647 46.5156V51.2707C77.3647 51.656 77.1592 52.0119 76.8256 52.2047L62.9879 60.1939C62.6543 60.3864 62.243 60.3864 61.9094 60.1939L48.0746 52.2047C47.741 52.0119 47.5355 51.656 47.5355 51.271V45.8981L61.9085 54.1979Z" fill="black"/>
<path d="M90.2773 34.4219H92.866C92.8864 35.4987 93.6939 36.2237 95.3095 36.2237C96.9251 36.2237 97.753 35.4987 97.753 34.4219C97.753 33.2416 96.4898 33.0138 95.0193 32.7446C92.9694 32.3718 90.5468 31.9368 90.5468 28.7892C90.5468 26.2838 92.4516 24.5234 95.3303 24.5234C98.209 24.5234 100.011 26.2007 100.114 28.6856H97.6082C97.5879 27.6503 96.8215 26.9047 95.3509 26.9047C93.8803 26.9047 93.1147 27.7122 93.1147 28.7062C93.1147 29.8865 94.378 30.1143 95.8484 30.3835C97.8982 30.7563 100.342 31.191 100.342 34.3386C100.342 36.9685 98.333 38.6047 95.3097 38.6047C92.2865 38.6047 90.3398 37.0101 90.2776 34.4217L90.2773 34.4219Z" fill="black"/>
<path d="M102.021 25.1448C102.021 24.1922 102.704 23.488 103.656 23.488C104.608 23.488 105.292 24.1922 105.292 25.1448C105.292 26.0973 104.609 26.7809 103.656 26.7809C102.703 26.7809 102.021 26.0976 102.021 25.1448ZM102.414 28.106H104.878V38.3356H102.414V28.106Z" fill="black"/>
<path d="M107.259 32.496C107.259 29.2864 109.122 27.8369 111.545 27.8369C113.078 27.8369 114.34 28.4789 115.086 29.6798C115.811 28.4789 117.074 27.8369 118.627 27.8369C121.05 27.8369 122.914 29.2864 122.914 32.496V38.3357H120.449V32.496C120.449 30.8187 119.58 30.1354 118.379 30.1354C117.179 30.1354 116.329 30.8393 116.329 32.496V38.3357H113.864V32.496C113.864 30.8393 112.974 30.1354 111.794 30.1354C110.613 30.1354 109.723 30.8187 109.723 32.496V38.3357H107.259V32.496Z" fill="black"/>
<path d="M124.945 33.3038C124.945 29.9906 127.181 27.8369 130.391 27.8369C133.6 27.8369 135.92 30.0734 135.92 33.3244C135.92 36.824 133.311 38.6049 130.826 38.6049C129.355 38.6049 128.134 37.9835 127.409 36.8448V42.7051H124.944V33.3038H124.945ZM133.435 33.221C133.435 31.4196 132.213 30.1356 130.412 30.1356C128.61 30.1356 127.409 31.4196 127.409 33.221C127.409 35.0225 128.61 36.3065 130.412 36.3065C132.213 36.3065 133.435 35.0228 133.435 33.221Z" fill="black"/>
<path d="M137.887 23.6333H140.351V38.3359H137.887V23.6333Z" fill="black"/>
<path d="M142.815 39.454H145.279C145.693 40.4065 146.501 40.8415 147.744 40.8415C149.421 40.8415 150.373 40.034 150.373 38.0461V36.7621C149.752 37.8805 148.675 38.4808 147.33 38.4808C144.969 38.4808 142.732 36.9485 142.732 33.3039V28.1062H145.197V33.3039C145.197 35.2504 146.232 36.1824 147.785 36.1824C149.338 36.1824 150.374 35.2093 150.374 33.3039V28.1062H152.838V37.9836C152.838 41.5454 150.581 42.9744 147.744 42.9744C145.362 42.9744 143.395 41.8768 142.815 39.454H142.815Z" fill="black"/>
<path d="M90.2773 56.1546H92.866C92.8864 57.2313 93.6939 57.9561 95.3095 57.9561C96.9251 57.9561 97.753 57.2311 97.753 56.1546C97.753 54.9743 96.4898 54.7462 95.0193 54.4773C92.9694 54.1045 90.5468 53.6697 90.5468 50.5221C90.5468 48.0164 92.4516 46.2561 95.3303 46.2561C98.209 46.2561 100.011 47.9334 100.114 50.4185H97.6082C97.5879 49.3829 96.8215 48.6376 95.3509 48.6376C93.8803 48.6376 93.1147 49.4451 93.1147 50.4391C93.1147 51.6194 94.378 51.8474 95.8484 52.1164C97.8982 52.4892 100.342 52.9239 100.342 56.0716C100.342 58.7014 98.333 60.3373 95.3097 60.3373C92.2865 60.3373 90.3398 58.743 90.2776 56.1546H90.2773Z" fill="black"/>
<path d="M102.062 56.1337V46.2144H104.526V49.8386H109.806V52.0749H104.526V56.1339C104.526 57.5006 105.23 58.0388 106.244 58.0388C107.259 58.0388 107.963 57.521 107.963 56.1339V55.8645H110.427V56.1339C110.427 58.971 108.729 60.3375 106.244 60.3375C103.759 60.3375 102.062 58.971 102.062 56.1339V56.1337Z" fill="black"/>
<path d="M111.587 55.0566C111.587 51.8056 113.865 49.5688 117.116 49.5688C120.367 49.5688 122.562 51.7431 122.562 55.0358V60.0679H120.305V58.0592C119.684 59.5709 118.296 60.3371 116.681 60.3371C114.196 60.3371 111.587 58.5562 111.587 55.0566ZM120.098 54.9532C120.098 53.1517 118.896 51.8678 117.095 51.8678C115.293 51.8678 114.072 53.1515 114.072 54.9532C114.072 56.7549 115.293 58.0386 117.095 58.0386C118.896 58.0386 120.098 56.7549 120.098 54.9532Z" fill="black"/>
<path d="M124.943 45.3655H127.408V54.3112L131.466 49.8382H134.614L129.81 54.8495L134.801 60.0678H131.591L127.408 55.4501V60.0678H124.943V45.3652V45.3655Z" fill="black"/>
<path d="M136.064 46.8772C136.064 45.9244 136.748 45.2202 137.701 45.2202C138.653 45.2202 139.336 45.9244 139.336 46.8772C139.336 47.83 138.653 48.5131 137.701 48.5131C136.748 48.5131 136.064 47.8297 136.064 46.8772ZM136.458 49.8384H138.922V60.0681H136.458V49.8384Z" fill="black"/>
<path d="M141.304 54.746C141.304 51.3294 143.333 49.5688 146.357 49.5688C149.38 49.5688 151.409 51.3084 151.409 54.746V60.0679H148.945V54.746C148.945 52.7995 147.91 51.8678 146.357 51.8678C144.804 51.8678 143.768 52.7995 143.768 54.746V60.0679H141.304V54.746Z" fill="black"/>
<path d="M153.378 61.186H155.862C156.277 62.1388 157.271 62.5736 158.575 62.5736C160.397 62.5736 161.536 61.7244 161.536 59.3429V58.4526C160.832 59.5915 159.61 60.2127 158.078 60.2127C155.634 60.2127 153.025 58.5768 153.025 54.953C153.025 51.847 155.303 49.5688 158.534 49.5688C161.764 49.5688 164 51.7225 164 55.0358V59.2604C164 63.1739 161.577 64.7065 158.575 64.7065C156.028 64.7065 154.019 63.6092 153.377 61.186H153.378ZM161.536 54.953C161.536 53.1515 160.335 51.8675 158.534 51.8675C156.732 51.8675 155.51 53.1512 155.51 54.953C155.51 56.7547 156.732 57.9142 158.534 57.9142C160.335 57.9142 161.536 56.7545 161.536 54.953Z" fill="black"/>
</svg>
