<svg width="200" height="84" viewBox="0 0 200 84" fill="none" xmlns="http://www.w3.org/2000/svg">
<path d="M133.705 39.8791V62.7674C133.705 63.4144 134.228 63.9374 134.875 63.9374H141.311C141.958 63.9374 142.481 63.4144 142.481 62.7674V43.1146C142.481 42.011 143.372 41.1201 144.475 41.1201H149.253C150.357 41.1201 151.248 42.011 151.248 43.1146V62.7674C151.248 63.4144 151.771 63.9374 152.418 63.9374H158.854C159.501 63.9374 160.024 63.4144 160.024 62.7674V39.8791C160.024 35.7172 156.651 32.3442 152.489 32.3442H141.24C137.078 32.3442 133.705 35.7172 133.705 39.8791Z" fill="black"/>
<path d="M116.739 32.3442H110.303C109.656 32.3442 109.133 32.8672 109.133 33.5143V62.7674C109.133 63.4144 109.656 63.9374 110.303 63.9374H116.739C117.386 63.9374 117.909 63.4144 117.909 62.7674V33.5143C117.909 32.8672 117.386 32.3442 116.739 32.3442Z" fill="black"/>
<path d="M51.8108 44.5424L55.6535 40.6996C55.9151 40.4381 56.3361 40.4381 56.5932 40.6996L60.436 44.5424C60.888 44.9945 61.6149 44.9945 62.067 44.5424L65.4356 41.1739C65.8876 40.7218 65.8876 39.9949 65.4356 39.5428L58.632 32.7393C57.2491 31.3564 55.002 31.3564 53.6191 32.7393L46.8156 39.5428C46.3635 39.9949 46.3635 40.7218 46.8156 41.1739L50.1841 44.5424C50.6362 44.9945 51.3631 44.9945 51.8152 44.5424H51.8108Z" fill="black"/>
<path d="M71.2328 45.3492L69.5574 43.6738C69.1053 43.2217 68.3785 43.2217 67.9264 43.6738L63.7467 47.8535L56.5931 55.0071C56.3316 55.2686 55.9105 55.2686 55.6534 55.0071L48.4998 47.8535L44.3202 43.6694C43.8681 43.2173 43.1412 43.2173 42.6891 43.6694L41.0137 45.3448C39.6308 46.7277 39.6308 48.9748 41.0137 50.3577L53.619 62.9632C55.0019 64.3457 57.2491 64.3457 58.6319 62.9632L71.2373 50.3577C72.6201 48.9748 72.6201 46.7277 71.2373 45.3448L71.2328 45.3492Z" fill="black"/>
<path d="M107.183 62.1154L98.2788 48.7611C98.0263 48.3843 98.0171 47.8924 98.252 47.5023L106.421 34.1214C106.899 33.3413 106.336 32.3396 105.424 32.3396H98.5049C98.0972 32.3396 97.7202 32.5523 97.5077 32.898L92.202 41.5852C91.9759 41.9532 91.5774 42.2102 91.112 42.2102C90.4025 42.2102 89.8267 41.634 89.8267 40.9249V24.3039C89.8267 23.6568 89.3033 23.1338 88.6562 23.1338H82.2208C81.5738 23.1338 81.0508 23.6568 81.0508 24.3039V62.7669C81.0508 63.4139 81.5738 63.9369 82.2208 63.9369H88.6562C89.3033 63.9369 89.8267 63.4139 89.8267 62.7669V54.82C89.8267 54.1108 90.4025 53.5346 91.112 53.5346C91.555 53.5346 91.9407 53.7562 92.1756 54.0975L98.3897 63.4187C98.607 63.7421 98.9703 63.9417 99.3649 63.9417H106.212C107.148 63.9417 107.706 62.9001 107.188 62.1242" fill="black"/>
<path d="M129.025 21.813H122.589C121.942 21.813 121.419 22.336 121.419 22.9831V62.7669C121.419 63.414 121.942 63.937 122.589 63.937H129.025C129.672 63.937 130.195 63.414 130.195 62.7669V22.9831C130.195 22.336 129.672 21.813 129.025 21.813Z" fill="black"/>
<path d="M113.521 20C110.857 20 108.694 22.1629 108.694 24.8267C108.694 27.4905 110.857 29.6534 113.521 29.6534C116.185 29.6534 118.348 27.4905 118.348 24.8267C118.348 22.1629 116.189 20 113.521 20Z" fill="black"/>
</svg>
