<svg width="200" height="84" viewBox="0 0 200 84" fill="none" xmlns="http://www.w3.org/2000/svg">
<path fill-rule="evenodd" clip-rule="evenodd" d="M95.7193 42.373C95.7193 40.3821 97.34 39.0135 99.2938 39.0135C101.205 39.0135 102.826 40.3821 102.826 42.373C102.826 44.406 101.205 45.7753 99.2938 45.7753C97.34 45.7753 95.7193 44.406 95.7193 42.373ZM97.7146 42.3737C97.7146 43.3691 98.4624 44.0327 99.2938 44.0327C100.083 44.0327 100.832 43.4105 100.832 42.373C100.832 41.3776 100.083 40.7139 99.2938 40.7139C98.4624 40.7139 97.7146 41.3776 97.7146 42.3737Z" fill="black"/>
<path d="M94.6806 43.7009L95.1374 45.3186C94.6391 45.5676 94.0986 45.7753 93.4338 45.816C91.8124 45.816 90.8566 44.9454 90.8566 43.2443V40.7967H89.6934V39.179H90.8566V37.2709H92.8933V39.179H94.805V40.7967H92.8933V43.0373C92.8933 43.7009 93.2258 43.95 93.7662 43.95C94.0157 43.95 94.4311 43.8665 94.6806 43.7009Z" fill="black"/>
<path fill-rule="evenodd" clip-rule="evenodd" d="M83.7912 39.6771C84.2902 39.2204 84.9551 38.9714 85.7865 38.9714C87.4901 38.9714 88.9035 40.3821 88.9035 42.373C88.9035 44.406 87.4901 45.7753 85.7865 45.7753C84.9551 45.7753 84.2902 45.5263 83.7912 45.0696V47.7662H81.7552V39.179H83.7912V39.6771ZM83.7912 42.3737C83.7912 43.3691 84.5397 44.0327 85.3704 44.0327C86.2427 44.0327 86.9082 43.3691 86.9082 42.373C86.9082 41.3776 86.2848 40.7139 85.3704 40.7139C84.539 40.7139 83.7912 41.3776 83.7912 42.3737Z" fill="black"/>
<path d="M80.5077 39.179L76.8095 47.7662V47.8076H74.5647L75.6042 45.4014L72.944 39.179H75.1466L76.6844 42.9124L78.3051 39.179H80.5077Z" fill="black"/>
<path d="M69.7027 40.4235C70.1595 39.6357 70.8658 39.0962 71.9053 39.0962C72.0711 39.0962 72.1955 39.0962 72.3621 39.179L72.2785 41.212H71.9046C70.4919 41.212 69.702 41.9584 69.702 43.6181V45.609H67.6659V39.179H69.7027V40.4235Z" fill="black"/>
<path d="M63.967 41.9584L66.0452 42.3737C65.6704 44.5311 63.9246 45.7753 61.7223 45.7753C59.1457 45.7753 57.1511 43.8258 57.1511 41.2948C57.1511 38.7644 59.1872 36.8142 61.7223 36.8142C63.8419 36.8142 65.6298 38.0594 66.0445 40.0917L63.967 40.5891C63.676 39.3453 62.8446 38.7637 61.7223 38.7637C60.3511 38.7637 59.2701 39.8427 59.2701 41.2948C59.2701 42.7469 60.3511 43.8665 61.7223 43.8665C62.8032 43.8665 63.676 43.2443 63.967 41.9584Z" fill="black"/>
<path d="M18.7481 48.3884L25.6476 42.6634C25.7477 42.5828 25.8718 42.5388 26.0005 42.5388C26.1291 42.5388 26.2539 42.5828 26.354 42.6634L33.5859 48.6374C33.6508 48.6853 33.7034 48.7478 33.7394 48.8199C33.7755 48.892 33.7939 48.9715 33.7932 49.052V60.46C33.7932 60.9159 33.2535 61.1657 32.8795 60.8752L18.7481 49.2597C18.4993 49.0106 18.4993 48.5961 18.7481 48.3884Z" fill="black"/>
<path d="M33.7932 23.5396V35.031C33.7932 35.1966 33.711 35.3214 33.5866 35.4456L26.3968 41.3776C26.2967 41.4582 26.1719 41.5022 26.0433 41.5022C25.9146 41.5022 25.7899 41.4582 25.6898 41.3776L18.7074 35.6532C18.4164 35.4042 18.4164 35.031 18.7074 34.782L32.8789 23.125C33.2535 22.8339 33.7932 23.0836 33.7932 23.5396Z" fill="black"/>
<path d="M179.341 40.4235C179.797 39.635 180.504 39.0955 181.543 39.0955C181.709 39.0955 181.834 39.0955 182 39.179L181.917 41.2113H181.543C180.13 41.2113 179.341 41.9584 179.341 43.6174V45.609H177.304V39.179H179.341V40.4235Z" fill="black"/>
<path d="M175.392 39.179V45.6083H173.355V44.9861C172.899 45.4842 172.192 45.7746 171.402 45.7746C169.906 45.7746 168.909 44.7377 168.909 43.1194V39.179H170.945V42.7048C170.945 43.4519 171.361 43.9499 172.026 43.9499C172.815 43.9499 173.355 43.4098 173.355 42.1653V39.179H175.392Z" fill="black"/>
<path d="M167.495 43.7002L167.952 45.3186C167.454 45.5669 166.913 45.7753 166.249 45.816C164.628 45.816 163.672 44.9447 163.672 43.2442V40.7967H162.508V39.179H163.672V37.2702H165.708V39.179H167.62V40.7967H165.708V43.0366C165.708 43.7002 166.041 43.9493 166.581 43.9493C166.831 43.9493 167.246 43.8665 167.495 43.7002Z" fill="black"/>
<path d="M162.176 45.609H159.557L157.479 43.2856H157.105V45.609H155.068V36.3996H157.105V41.3775H157.396L159.433 39.179H161.885L159.058 42.2488L162.176 45.609Z" fill="black"/>
<path fill-rule="evenodd" clip-rule="evenodd" d="M153.157 39.179V45.5669H151.121V45.0689C150.622 45.5255 149.957 45.7746 149.125 45.7746C147.463 45.7746 146.008 44.4059 146.008 42.373C146.008 40.34 147.422 38.9707 149.125 38.9707C149.957 38.9707 150.622 39.2204 151.121 39.6764V39.179H153.157ZM148.003 42.373C148.003 43.3684 148.626 44.032 149.541 44.032C150.372 44.032 151.121 43.3684 151.121 42.373C151.121 41.3775 150.372 40.7139 149.541 40.7139C148.668 40.7139 148.003 41.3775 148.003 42.373Z" fill="black"/>
<path d="M143.598 39.179H145.385V40.7967H143.598V45.6083H141.561V40.7967H140.647V39.179H141.561V38.6809C141.561 37.1874 142.6 36.2334 144.138 36.2334C144.566 36.2358 144.989 36.3203 145.385 36.4824L144.97 38.0587C144.803 38.0166 144.595 37.9759 144.429 37.9759C143.93 37.9759 143.598 38.2663 143.598 38.7637V39.179Z" fill="black"/>
<path d="M139.317 39.179V45.6083H137.281V44.9861C136.823 45.4842 136.117 45.7746 135.327 45.7746C133.831 45.7746 132.833 44.7377 132.833 43.1194V39.179H134.87V42.7048C134.87 43.4519 135.286 43.9499 135.95 43.9499C136.74 43.9499 137.281 43.4098 137.281 42.1653V39.179H139.317Z" fill="black"/>
<path d="M126.724 39.7598C127.181 39.2618 127.888 38.9714 128.678 38.9714C130.173 38.9714 131.171 40.0496 131.171 41.6679V45.5669H129.135V42.0825C129.135 41.3361 128.719 40.8381 128.054 40.8381C127.264 40.8381 126.724 41.3775 126.724 42.622V45.609H124.688V39.179H126.724V39.7598Z" fill="black"/>
<path fill-rule="evenodd" clip-rule="evenodd" d="M122.775 39.179V45.5669H120.739V45.0689C120.24 45.5255 119.576 45.7746 118.744 45.7746C117.082 45.7746 115.627 44.4059 115.627 42.373C115.627 40.34 117.041 38.9707 118.744 38.9707C119.576 38.9707 120.24 39.2204 120.739 39.6764V39.179H122.775ZM117.622 42.373C117.622 43.3684 118.246 44.032 119.16 44.032C119.991 44.032 120.739 43.3684 120.739 42.373C120.739 41.3775 119.991 40.7139 119.16 40.7139C118.287 40.7139 117.622 41.3775 117.622 42.373Z" fill="black"/>
<path d="M114.172 37.0225V45.6097H112.094V41.3368L109.85 45.6097H108.562L106.318 41.2954V45.5676H104.281V37.0219H106.359L109.227 42.3323L112.094 37.0225H114.172Z" fill="black"/>
<path d="M26.9774 42.4558L33.7103 48.0152C33.8104 48.0959 33.9352 48.1398 34.0638 48.1398C34.1924 48.1398 34.3172 48.0959 34.4173 48.0152L41.1496 42.4558C41.3991 42.2488 41.3991 41.8336 41.1496 41.5852L34.4166 36.0679C34.3166 35.9874 34.1919 35.9435 34.0635 35.9435C33.935 35.9435 33.8103 35.9874 33.7103 36.0679L26.9774 41.5845C26.6864 41.8336 26.6864 42.2488 26.9774 42.4558Z" fill="black"/>
<path d="M49.4617 35.6533L42.48 41.3776C42.3799 41.4583 42.2551 41.5022 42.1265 41.5022C41.9978 41.5022 41.8731 41.4583 41.7729 41.3776L34.5417 35.4457C34.4766 35.3979 34.4238 35.3355 34.3876 35.2634C34.3515 35.1913 34.333 35.1117 34.3337 35.0311V23.5397C34.3337 23.0837 34.8741 22.8347 35.248 23.1244L49.4617 34.782C49.7112 35.0311 49.7112 35.4457 49.4617 35.6533Z" fill="black"/>
<path d="M18.0003 47.1026V36.9806C17.9966 36.8731 18.0239 36.7669 18.0789 36.6744C18.1339 36.582 18.2143 36.5073 18.3106 36.4592C18.4069 36.4111 18.5151 36.3916 18.6222 36.4031C18.7293 36.4146 18.8308 36.4565 18.9147 36.5239L25.0657 41.5852C25.3152 41.8343 25.3152 42.2489 25.0657 42.4565L18.9147 47.5172C18.5408 47.8083 18.0003 47.5586 18.0003 47.1026Z" fill="black"/>
<path d="M34.3337 60.46V49.0521C34.3337 48.8865 34.4173 48.7203 34.5424 48.5961L41.7736 42.6635C41.8737 42.5828 41.9985 42.5389 42.1271 42.5389C42.2558 42.5389 42.3805 42.5828 42.4806 42.6635L49.3788 48.3885C49.6283 48.6375 49.6283 49.0521 49.3788 49.2597L35.248 60.8753C34.8741 61.1657 34.3337 60.9167 34.3337 60.46Z" fill="black"/>
</svg>
