<svg width="200" height="84" viewBox="0 0 200 84" fill="none" xmlns="http://www.w3.org/2000/svg">
<path d="M80.8447 43.5386C81.4333 43.5386 81.9637 43.617 82.4346 43.7739C82.9052 43.9308 83.3072 44.0974 83.6406 44.2739C84.0134 44.4897 84.357 44.7356 84.6709 45.0103L85.2598 43.6851H87.7607V56.3403C87.7607 58.1061 87.1917 59.5288 86.0537 60.6079C84.9354 61.6868 83.346 62.2261 81.2861 62.2261C80.0306 62.2261 79.0103 62.0005 78.2256 61.5493C77.4605 61.0981 76.8526 60.5879 76.4014 60.019C75.8913 59.3716 75.508 58.636 75.2529 57.812H78.6377C78.775 58.067 78.9619 58.2926 79.1973 58.4888C79.413 58.6456 79.6873 58.7929 80.0205 58.9302C80.354 59.0675 80.7761 59.1362 81.2861 59.1362C82.2475 59.1362 83.0034 58.871 83.5527 58.3413C84.1019 57.8312 84.376 57.1642 84.376 56.3403V55.3101C84.1013 55.5847 83.7877 55.8306 83.4346 56.0464C83.1207 56.2425 82.7479 56.4188 82.3164 56.5757C81.8848 56.713 81.3941 56.7817 80.8447 56.7817C80.0012 56.7817 79.1967 56.6152 78.4316 56.2817C77.6861 55.9482 77.0289 55.4865 76.46 54.8979C75.9107 54.3095 75.4692 53.6133 75.1357 52.8091C74.8218 52.0047 74.665 51.121 74.665 50.1597C74.6651 49.1984 74.8219 48.3155 75.1357 47.5112C75.4693 46.7069 75.9107 46.0099 76.46 45.4214C77.0289 44.8329 77.6862 44.3721 78.4316 44.0386C79.1968 43.7051 80.0011 43.5386 80.8447 43.5386ZM133.521 43.8325C134.364 43.8325 135.159 43.9991 135.904 44.3325C136.669 44.666 137.327 45.1374 137.876 45.7456C138.445 46.3342 138.886 47.0407 139.2 47.8647C139.534 48.6886 139.701 49.6007 139.701 50.6011C139.701 51.6017 139.534 52.5143 139.2 53.3384C138.886 54.1624 138.445 54.8786 137.876 55.4868C137.327 56.0753 136.669 56.5361 135.904 56.8696C135.159 57.2032 134.364 57.3706 133.521 57.3706C132.853 57.3706 132.275 57.2815 131.784 57.105C131.294 56.9088 130.881 56.7036 130.548 56.4878C130.156 56.2328 129.822 55.9383 129.548 55.605V61.9321H127.341V43.98H128.959L129.548 45.4517C129.822 45.1574 130.156 44.8921 130.548 44.6567C130.881 44.4409 131.294 44.2541 131.784 44.0972C132.275 43.9206 132.854 43.8325 133.521 43.8325ZM60.8467 43.5386C62.4749 43.5386 63.7208 43.9307 64.584 44.7153C65.4669 45.5001 65.9866 46.4815 66.1436 47.6587H62.9062C62.8278 47.3644 62.6119 47.0702 62.2588 46.7759C61.9253 46.4816 61.5033 46.3345 60.9932 46.3345C60.4834 46.3345 60.0813 46.4615 59.7871 46.7163C59.5124 46.9714 59.375 47.2859 59.375 47.6587C59.3751 47.9724 59.5417 48.2175 59.875 48.394C60.2281 48.5706 60.6599 48.7381 61.1699 48.895C61.68 49.0324 62.2298 49.1891 62.8184 49.3657C63.4265 49.5227 63.986 49.7579 64.4961 50.0718C65.0061 50.3857 65.4282 50.7981 65.7617 51.3081C66.1147 51.7985 66.291 52.4463 66.291 53.2505C66.291 53.7997 66.1729 54.3293 65.9375 54.8394C65.7021 55.3297 65.369 55.7616 64.9375 56.1343C64.5059 56.5071 63.9755 56.8109 63.3477 57.0464C62.7395 57.2621 62.0531 57.3706 61.2881 57.3706C59.5223 57.3706 58.178 56.968 57.2559 56.1636C56.3535 55.3592 55.8336 54.2896 55.6963 52.9556H58.9336C59.0121 53.4068 59.2279 53.7901 59.5811 54.104C59.9341 54.4177 60.4049 54.5746 60.9932 54.5747C61.5817 54.5747 62.0434 54.4276 62.377 54.1333C62.7301 53.8194 62.9062 53.4758 62.9062 53.103C62.9062 52.7892 62.7299 52.5442 62.377 52.3677C62.0434 52.1911 61.6214 52.0333 61.1113 51.896C60.6012 51.739 60.0418 51.5822 59.4336 51.4253C58.8452 51.2684 58.2961 51.0427 57.7861 50.7485C57.2762 50.4347 56.8443 50.0425 56.4912 49.5718C56.1577 49.0813 55.9903 48.4434 55.9902 47.6587C55.9902 47.1094 56.0987 46.5895 56.3145 46.0991C56.5499 45.589 56.8828 45.1467 57.3145 44.7739C57.7461 44.4011 58.2571 44.1069 58.8457 43.8911C59.4342 43.6558 60.1013 43.5386 60.8467 43.5386ZM118.67 43.5386C119.435 43.5386 120.142 43.676 120.789 43.9507C121.436 44.2057 121.996 44.5687 122.467 45.0396C122.937 45.5103 123.301 46.0691 123.556 46.7163C123.83 47.3637 123.968 48.0704 123.968 48.8354V57.2231H121.466L120.877 55.8989C120.563 56.1734 120.22 56.4186 119.848 56.6343C119.514 56.8305 119.112 57.0076 118.641 57.1646C118.17 57.3018 117.64 57.3706 117.052 57.3706C115.58 57.3706 114.452 57.0173 113.667 56.311C112.882 55.5851 112.49 54.6628 112.49 53.5444C112.49 52.8776 112.617 52.2694 112.872 51.7202C113.147 51.1512 113.599 50.6702 114.227 50.2778C114.854 49.8659 115.678 49.5522 116.698 49.3364C117.738 49.101 119.033 48.9829 120.583 48.9829C120.583 48.2374 120.377 47.6586 119.965 47.2466C119.572 46.8346 119.043 46.6285 118.376 46.6284C117.925 46.6284 117.562 46.7069 117.287 46.8638C117.032 47.0206 116.826 47.1873 116.669 47.3638C116.492 47.5796 116.374 47.8254 116.315 48.1001H112.932C113.01 47.4724 113.186 46.8837 113.461 46.3345C113.755 45.7851 114.148 45.3041 114.639 44.8921C115.129 44.4802 115.708 44.1568 116.375 43.9214C117.062 43.6664 117.826 43.5386 118.67 43.5386ZM183.968 43.8325C184.772 43.8326 185.537 43.9894 186.263 44.3032C187.008 44.6171 187.656 45.0691 188.205 45.6577C188.754 46.2266 189.186 46.9227 189.5 47.7466C189.834 48.551 190 49.454 190 50.4546C190 50.6507 189.99 50.8173 189.971 50.9546C189.951 51.0919 189.932 51.21 189.912 51.3081C189.893 51.4256 189.873 51.5334 189.854 51.6313H180.142C180.181 52.1022 180.309 52.5639 180.524 53.0151C180.76 53.4662 181.054 53.8585 181.407 54.1919C181.76 54.5253 182.172 54.8003 182.643 55.0161C183.113 55.2123 183.604 55.31 184.114 55.3101C184.546 55.3101 184.939 55.251 185.292 55.1333C185.645 55.0156 185.949 54.8781 186.204 54.7212C186.479 54.5643 186.704 54.3977 186.881 54.2212C187.077 54.0251 187.234 53.8488 187.352 53.6919H189.706C189.49 54.1627 189.215 54.6235 188.882 55.0747C188.548 55.5259 188.147 55.9189 187.676 56.2524C187.225 56.586 186.694 56.8599 186.086 57.0757C185.497 57.2718 184.84 57.3706 184.114 57.3706C183.231 57.3706 182.408 57.2031 181.643 56.8696C180.877 56.5361 180.2 56.0754 179.611 55.4868C179.042 54.8786 178.591 54.1623 178.258 53.3384C177.944 52.5144 177.787 51.6016 177.787 50.6011C177.787 49.6007 177.954 48.6886 178.287 47.8647C178.64 47.0407 179.102 46.3342 179.671 45.7456C180.24 45.1375 180.897 44.666 181.643 44.3325C182.388 43.9991 183.163 43.8325 183.968 43.8325ZM23.377 30.4702H42.7734V37.1587H36.7549V45.1851H36.6885C36.0169 51.9445 30.3131 57.2231 23.377 57.2231C15.9891 57.2229 10 51.234 10 43.8462C10.0001 36.4584 15.9892 30.4694 23.377 30.4692V30.4702ZM72.1748 57.2231H68.79V43.6851H72.1748V57.2231ZM105.133 43.5386C106.604 43.5387 107.781 44.0091 108.664 44.9507C109.547 45.8924 109.988 47.2861 109.988 49.1304V57.2231H106.604V49.4243C106.604 48.6003 106.378 47.9528 105.927 47.4819C105.495 47.0112 104.985 46.7759 104.396 46.7759C103.808 46.7759 103.288 47.0111 102.837 47.4819C102.405 47.9528 102.189 48.6003 102.189 49.4243V57.2231H98.8047V49.4243C98.8047 48.6003 98.5792 47.9528 98.1279 47.4819C97.6963 47.0111 97.1862 46.7759 96.5977 46.7759C96.0091 46.7759 95.4893 47.0111 95.0381 47.4819C94.6065 47.9528 94.3906 48.6003 94.3906 49.4243V57.2231H91.0059V43.6851H93.5078L94.0967 45.0103C94.3714 44.7356 94.6753 44.4897 95.0088 44.2739C95.2833 44.0975 95.6167 43.9308 96.0088 43.7739C96.4012 43.617 96.8435 43.5386 97.334 43.5386C98.0205 43.5386 98.6092 43.6364 99.0996 43.8325C99.59 44.0091 99.9918 44.2056 100.306 44.4214C100.659 44.6764 100.943 44.9707 101.159 45.3042C101.473 44.9707 101.836 44.6764 102.248 44.4214C102.601 44.2056 103.023 44.0091 103.514 43.8325C104.004 43.6363 104.544 43.5386 105.133 43.5386ZM148.957 46.0396H148.369C147.329 46.0396 146.476 46.3735 145.809 47.0405C145.161 47.7075 144.837 48.6001 144.837 49.7183V57.2231H142.63V43.98H144.249L144.837 45.4517C145.112 45.1574 145.436 44.8922 145.809 44.6567C146.142 44.441 146.544 44.2541 147.015 44.0972C147.486 43.9206 148.035 43.8325 148.663 43.8325H148.957V46.0396ZM153.66 57.2231H151.453V43.98H153.66V57.2231ZM170.585 43.8325C171.174 43.8325 171.733 43.9603 172.263 44.2153C172.792 44.4508 173.263 44.8041 173.675 45.2749C174.087 45.7458 174.411 46.3246 174.646 47.0112C174.882 47.6782 174.999 48.4334 174.999 49.2769V57.2231H172.792V49.2769C172.792 48.159 172.537 47.3155 172.027 46.7466C171.517 46.1777 170.889 45.8931 170.144 45.8931C169.398 45.8931 168.741 46.197 168.172 46.8052C167.623 47.4133 167.348 48.2371 167.348 49.2769V57.2231H165.141V49.2769C165.141 48.1588 164.885 47.3155 164.375 46.7466C163.865 46.1776 163.237 45.8931 162.491 45.8931C162.138 45.8931 161.786 45.9813 161.433 46.1577C161.099 46.3147 160.804 46.5499 160.549 46.8638C160.294 47.158 160.089 47.5115 159.932 47.9233C159.775 48.3353 159.696 48.7865 159.696 49.2769V57.2231H157.488V43.98H159.107L159.696 45.4517C159.912 45.1574 160.176 44.8921 160.49 44.6567C160.765 44.4409 161.099 44.2541 161.491 44.0972C161.883 43.9207 162.364 43.8326 162.933 43.8325C163.6 43.8325 164.159 43.9603 164.61 44.2153C165.081 44.4508 165.464 44.716 165.759 45.0103C166.112 45.3632 166.396 45.7556 166.611 46.187C166.866 45.7554 167.181 45.3634 167.554 45.0103C167.887 44.716 168.3 44.4508 168.79 44.2153C169.28 43.9604 169.879 43.8325 170.585 43.8325ZM133.373 45.8931C132.824 45.8931 132.294 46.0102 131.784 46.2456C131.294 46.4614 130.862 46.776 130.489 47.188C130.117 47.6 129.813 48.1005 129.577 48.689C129.361 49.2577 129.253 49.8951 129.253 50.6011C129.253 51.3073 129.361 51.9549 129.577 52.5435C129.813 53.1124 130.117 53.6032 130.489 54.0151C130.862 54.4272 131.294 54.7514 131.784 54.9868C132.294 55.2026 132.824 55.31 133.373 55.3101C133.922 55.3101 134.443 55.2026 134.934 54.9868C135.444 54.7514 135.885 54.4271 136.258 54.0151C136.63 53.6032 136.925 53.1123 137.141 52.5435C137.376 51.955 137.493 51.3072 137.493 50.6011C137.493 49.8951 137.376 49.2577 137.141 48.689C136.925 48.1005 136.63 47.5999 136.258 47.188C135.885 46.776 135.444 46.4614 134.934 46.2456C134.443 46.0102 133.922 45.8931 133.373 45.8931ZM120.583 51.3374C119.582 51.3374 118.778 51.3868 118.17 51.4849C117.562 51.5633 117.081 51.6901 116.728 51.8667C116.394 52.0237 116.168 52.2201 116.051 52.4556C115.933 52.691 115.874 52.9562 115.874 53.2505C115.874 53.6231 116.042 53.966 116.375 54.2798C116.708 54.574 117.13 54.7211 117.64 54.7212C118.522 54.7212 119.229 54.4666 119.759 53.9565C120.308 53.4269 120.583 52.7501 120.583 51.9263V51.3374ZM81.2861 46.7759C80.835 46.7759 80.4128 46.864 80.0205 47.0405C79.6284 47.217 79.2854 47.4622 78.9912 47.7759C78.6969 48.0702 78.4608 48.4235 78.2842 48.8354C78.1273 49.2474 78.0489 49.6889 78.0488 50.1597C78.0488 50.6305 78.1272 51.0728 78.2842 51.4849C78.4607 51.8968 78.697 52.2599 78.9912 52.5737C79.2854 52.8678 79.6284 53.1033 80.0205 53.2798C80.4128 53.4563 80.835 53.5444 81.2861 53.5444C81.7178 53.5444 82.1301 53.4564 82.5225 53.2798C82.9148 53.1032 83.2585 52.868 83.5527 52.5737C83.8469 52.2599 84.0822 51.8967 84.2588 51.4849C84.4354 51.0728 84.5234 50.6305 84.5234 50.1597C84.5234 49.6889 84.4353 49.2474 84.2588 48.8354C84.0822 48.4235 83.847 48.0701 83.5527 47.7759C83.2585 47.462 82.9148 47.2171 82.5225 47.0405C82.1301 46.8639 81.7178 46.7759 81.2861 46.7759ZM23.377 37.1577C19.6832 37.1579 16.6886 40.1524 16.6885 43.8462C16.6885 47.54 19.6831 50.5345 23.377 50.5347C26.6128 50.5347 29.3119 48.237 29.9316 45.1841H30.0664V37.1587H23.377V37.1577ZM183.968 45.8931C183.497 45.8931 183.045 45.9908 182.613 46.187C182.182 46.3832 181.79 46.6484 181.437 46.9819C181.103 47.3154 180.818 47.7173 180.583 48.188C180.367 48.6588 180.22 49.169 180.142 49.7183H187.793C187.714 49.169 187.558 48.6588 187.322 48.188C187.106 47.7173 186.822 47.3154 186.469 46.9819C186.135 46.6484 185.753 46.3832 185.321 46.187C184.89 45.9909 184.438 45.8931 183.968 45.8931ZM70.5557 38.2407C71.0657 38.2407 71.5072 38.4373 71.8799 38.8296C72.2722 39.2023 72.4687 39.6437 72.4688 40.1538C72.4688 40.6639 72.2723 41.1149 71.8799 41.5073C71.5071 41.8801 71.0658 42.0669 70.5557 42.0669C70.0457 42.0668 69.5945 41.88 69.2021 41.5073C68.8295 41.115 68.6426 40.6638 68.6426 40.1538C68.6426 39.6438 68.8294 39.2023 69.2021 38.8296C69.5945 38.4373 70.0457 38.2408 70.5557 38.2407ZM152.542 38.8296C152.954 38.8296 153.288 38.967 153.543 39.2417C153.818 39.4967 153.955 39.8307 153.955 40.2427C153.955 40.6348 153.817 40.9681 153.543 41.2427C153.288 41.4977 152.954 41.6255 152.542 41.6255C152.15 41.6255 151.816 41.4977 151.541 41.2427C151.286 40.9682 151.159 40.6347 151.159 40.2427C151.159 39.8308 151.286 39.4967 151.541 39.2417C151.816 38.9671 152.15 38.8296 152.542 38.8296ZM49.4639 33.144H45.4502V21.7739H49.4639V33.144Z" fill="black"/>
</svg>
