<svg width="200" height="84" viewBox="0 0 200 84" fill="none" xmlns="http://www.w3.org/2000/svg">
<path d="M83.4885 35.6503H86.2797V31.3096H89.8749V35.6503H93.7194V38.8121H89.8749V45.6645C89.8749 46.4706 90.0548 47.0601 90.4167 47.4306C90.7765 47.8034 91.3204 47.9876 92.0442 47.9876H94.0293V51.1494H91.3941C89.7384 51.1494 88.4728 50.7095 87.5952 49.8318C86.7175 48.9541 86.2776 47.6885 86.2776 46.0329V38.8077H83.4863V35.6459L83.4885 35.6503Z" fill="black"/>
<path d="M100.851 51.4311C99.1788 51.4311 97.9068 51.0193 97.0378 50.1915C96.1688 49.3658 95.7354 48.2172 95.7354 46.7501C95.7354 45.944 95.8632 45.2158 96.1233 44.5657C96.3812 43.9155 96.795 43.3673 97.3628 42.923C97.9305 42.4788 98.6653 42.1385 99.5646 41.9001C100.463 41.6618 101.562 41.5447 102.867 41.5447H105.472V40.6151C105.472 39.8717 105.27 39.3083 104.867 38.9247C104.464 38.5411 103.799 38.3504 102.869 38.3504C102 38.3504 101.369 38.5151 100.977 38.8467C100.585 39.1783 100.346 39.6117 100.264 40.1491H96.3572C96.4396 38.7643 97.0031 37.6223 98.0477 36.7229C99.0922 35.8236 100.698 35.375 102.869 35.375C105.04 35.375 106.486 35.8518 107.52 36.801C108.553 37.7523 109.069 39.0244 109.069 40.6151V51.1558H106.247L105.875 49.0169C105.337 49.8014 104.639 50.4017 103.783 50.8156C102.925 51.2273 101.948 51.4354 100.854 51.4354L100.851 51.4311ZM101.471 48.4535C102.05 48.4535 102.581 48.3559 103.068 48.1587C103.554 47.9615 103.972 47.6928 104.323 47.3526C104.674 47.0102 104.954 46.6244 105.16 46.191C105.368 45.7554 105.469 45.2917 105.469 44.7954V44.3295H102.865C101.625 44.3295 100.756 44.5375 100.26 44.9493C99.764 45.3632 99.517 45.9201 99.517 46.6223C99.517 47.1792 99.686 47.6256 100.028 47.955C100.37 48.2866 100.849 48.4513 101.469 48.4513L101.471 48.4535Z" fill="black"/>
<path d="M117.118 44.6719H115.568V51.1515H111.973V29.448H115.568V41.5101H117.118L120.839 35.6502H124.993L120.093 42.9685L125.611 51.1537H121.27L117.116 44.6741L117.118 44.6719Z" fill="black"/>
<path d="M133.033 51.4311C131.917 51.4311 130.914 51.262 130.025 50.9196C129.137 50.5772 128.369 50.0831 127.73 49.433C127.091 48.7829 126.599 47.9919 126.257 47.0622C125.914 46.1325 125.745 45.0771 125.745 43.9004V42.9078C125.745 41.7289 125.914 40.6757 126.257 39.746C126.599 38.8164 127.089 38.0254 127.73 37.3752C128.369 36.7251 129.134 36.2288 130.025 35.8864C130.914 35.544 131.917 35.375 133.033 35.375C135.285 35.375 137.064 36.0685 138.366 37.4533C139.669 38.838 140.319 40.8231 140.319 43.4063V44.6155H129.343C129.447 45.918 129.808 46.852 130.428 47.4219C131.048 47.9919 131.917 48.2758 133.033 48.2758C134.149 48.2758 134.929 48.0851 135.436 47.7015C135.941 47.3179 136.277 46.8693 136.444 46.3535H140.165C140 47.0773 139.74 47.7492 139.389 48.3689C139.038 48.9887 138.572 49.5262 137.994 49.9813C137.415 50.4364 136.711 50.7939 135.885 51.0496C135.059 51.3075 134.108 51.4376 133.033 51.4376V51.4311ZM133.033 38.5325C131.98 38.5325 131.152 38.7904 130.552 39.3083C129.951 39.8262 129.57 40.6411 129.405 41.7593H136.661C136.516 40.602 136.139 39.7742 135.53 39.2801C134.921 38.7839 134.088 38.5368 133.033 38.5368V38.5325Z" fill="black"/>
<path d="M144.25 49.8339C143.372 48.9562 142.932 47.6907 142.932 46.035V29.448H146.527V45.6644C146.527 46.4706 146.703 47.06 147.054 47.4306C147.405 47.8033 147.942 47.9876 148.666 47.9876H149.442V51.1494H148.016C146.384 51.1494 145.127 50.7094 144.248 49.8318H144.25V49.8339Z" fill="black"/>
<path d="M155.211 51.1517L148.979 35.6504H152.886L157.103 46.7503L161.071 35.6504H164.792L156.574 57.3539H152.853L155.211 51.1517Z" fill="black"/>
<path d="M76.5254 38.7948C75.275 38.5174 71.4263 37.8434 70.5096 35.9299C70.4446 35.711 70.4099 35.4835 70.4164 35.2451C70.4164 34.5213 70.7263 33.908 71.3461 33.3987C71.8597 32.9046 73.0993 32.6424 74.3345 32.6381C75.5698 32.6381 76.8072 32.896 77.3143 33.4442C77.9037 33.9817 78.2483 34.8702 78.3523 36.1098H82.3203C81.9237 31.1796 79.4879 29.1729 74.4147 29.1642C71.3677 29.1512 68.2905 30.0224 67.0054 32.8071C65.7333 35.6438 66.8732 39.0072 69.6709 40.2338C71.4133 41.1548 73.7342 41.5145 75.5611 42.1105C75.5611 42.1105 78.6817 42.8798 78.7424 44.8519C78.7424 44.8497 78.7424 44.8475 78.7424 44.8432C78.7424 44.8454 78.7424 44.8497 78.7424 44.8519C78.7359 45.8249 78.3046 46.5639 77.8972 46.9149C76.5168 48.1025 73.8426 48.2954 71.916 47.4069C71.0557 47.0103 70.2842 46.1456 70.1672 43.8637H66.1992C66.5698 49.1427 69.0663 51.416 74.4169 51.429C78.504 51.4398 82.5413 49.561 82.6345 45.1032C82.7125 41.3303 79.7046 39.5533 76.5254 38.7948Z" fill="black"/>
<path d="M166.101 51.4312C167.819 51.4312 169.213 50.0377 169.213 48.3192C169.213 46.6007 167.819 45.2073 166.101 45.2073C164.382 45.2073 162.989 46.6007 162.989 48.3192C162.989 50.0377 164.382 51.4312 166.101 51.4312Z" fill="black"/>
<path d="M49.8378 31.4157C50.2647 30.2411 51.5607 29.6343 52.7352 30.0612C53.9098 30.4881 54.5166 31.7841 54.0897 32.9586C53.6649 34.1332 52.3668 34.74 51.1923 34.3131C50.0177 33.8883 49.4109 32.5902 49.8378 31.4157Z" fill="black"/>
<path d="M55.208 35.4921C53.418 35.4618 52.4493 38.6431 44.4007 37.2409C41.3342 36.5973 39.2776 35.7283 37.9124 34.7921C35.3877 33.0628 35.2403 31.1059 35.4874 29.9248C29.9526 34.5689 29.2504 44.6113 33.6757 44.7174C35.4679 44.7608 36.3477 41.3714 44.3985 42.7757C47.4996 43.4258 49.5714 44.3252 50.9431 45.2961C53.4353 47.0601 53.6022 49.0581 53.3551 50.2327C58.8357 45.619 59.6159 35.5723 55.208 35.4943V35.4921Z" fill="black"/>
<path d="M50.1039 46.217C47.7873 48.434 45.0416 48.5705 43.6936 48.4448C40.4776 48.1111 38.252 46.1412 36.8304 48.2736C35.5041 50.263 38.3994 53.8214 44.9332 53.6134C47.9997 53.5158 50.4485 52.3651 52.1778 51.1515C52.4032 49.9553 52.4661 47.9074 50.1017 46.217H50.1039Z" fill="black"/>
<path d="M38.7342 33.9318C43.1486 29.8035 47.7168 33.4096 48.523 29.7493C49.0366 27.4154 45.6451 26.1411 41.8981 26.8346C39.8416 27.2138 38.1491 28.0308 36.6429 29.0689C36.4154 30.2499 36.3829 32.2653 38.7342 33.934V33.9318Z" fill="black"/>
</svg>
