<svg width="200" height="84" viewBox="0 0 200 84" fill="none" xmlns="http://www.w3.org/2000/svg">
<g clip-path="url(#clip0_52_26021)">
<path d="M35.9877 49.2973C35.9188 49.3642 34.3361 51.0382 34.4049 50.9043C33.8544 51.5069 32.7533 51.5739 31.9963 50.9712L31.9275 50.9043C31.2394 50.3017 31.1705 49.2303 31.7899 48.5607C31.7899 48.5607 31.7899 48.4938 31.8587 48.4938H31.9963L33.0286 47.3555L33.3727 46.9537L31.5834 45.3467L27.5233 49.699C26.147 51.7078 27.9362 55.1897 27.9362 55.3236C33.5791 57.1315 33.5791 55.1897 37.7769 50.9712L35.9877 49.2973Z" fill="black"/>
<path d="M33.2347 33.1602C33.2806 33.1602 33.2806 33.1602 33.2347 33.1602C33.3035 33.2271 36.6067 36.6421 36.4002 36.4412L33.7164 40.7266C33.7852 40.7935 41.9743 45.5476 41.9055 45.4807C55.944 37.3786 39.841 46.6859 50.0946 40.7266L47.4108 36.4412C47.342 36.3742 46.3097 34.7002 46.3785 34.7672L41.9743 27.5356L37.4325 34.8342C37.3637 34.7672 34.5422 31.821 34.6798 32.0219C34.7486 31.9549 34.8175 31.821 34.8863 31.754C35.4368 30.6157 35.2992 29.2765 34.4046 28.2722L33.2347 27.0669L32.8218 27.4686L30.9638 29.1426L29.1057 30.8166L30.2068 31.9549C36.469 26.3303 29.7939 32.3567 33.9229 28.607L32.9594 27.6695L33.9229 28.6739C34.611 29.4105 34.7486 30.3479 34.4046 31.2184C34.1293 31.888 33.51 32.4906 32.753 32.6915C31.8584 32.9593 30.895 32.6915 30.2068 32.0219L29.1057 30.8166L28.624 31.2184L29.7939 32.4236C30.6885 33.3611 32.0648 33.6289 33.2347 33.1602ZM40.8733 31.4862V36.3742C38.3271 37.5125 37.0196 38.0482 36.6755 38.2491C37.5701 36.776 39.9098 33.0263 40.8733 31.4862Z" fill="black"/>
<path d="M56.1501 49.699L52.0899 45.3467L50.3007 46.9537L50.6448 47.3555L51.677 48.4938L51.7458 48.5607L51.8147 48.6277C52.434 49.3642 52.3652 50.3686 51.677 50.9712L51.6082 51.0382C50.9201 51.6408 49.9566 51.6408 49.2685 51.0382L49.1997 50.9712L49.062 50.7704L47.6857 49.2973L45.8965 50.9043L49.9566 55.1897C51.5394 56.3949 54.3609 55.5914 55.7372 55.2566C55.7372 55.2566 57.4576 51.7078 56.1501 49.699Z" fill="black"/>
<path d="M51.9528 30.2811L53.0538 29.0758L51.1958 27.4019L50.0947 28.6071C50.1635 28.6741 52.0904 30.3481 51.9528 30.2811Z" fill="black"/>
<path d="M47.5482 36.5082C47.617 36.4412 50.9202 32.9594 50.7137 33.1602C51.9524 33.629 53.3287 33.3611 54.2233 32.3567L55.3932 31.1515L54.9115 30.7497L53.0535 29.0757L51.9524 30.281C52.0212 30.348 53.9481 32.0889 53.8105 31.955C53.1223 32.6246 52.1589 32.8924 51.2643 32.6246C50.9202 32.4906 50.5761 32.3567 50.3008 32.0889C50.0256 31.8211 49.8191 31.4863 49.6815 31.1515C49.3374 30.281 49.475 29.3436 50.1632 28.607L51.2643 27.4018L50.7825 27L49.6127 28.2053C48.7181 29.1427 48.5804 30.5488 49.131 31.6871C49.1998 31.7541 49.2686 31.888 49.3374 31.955C49.2686 32.0219 46.3783 35.0351 46.5848 34.8342C46.516 34.9012 47.617 36.5752 47.5482 36.5082Z" fill="black"/>
<path d="M46.7226 47.0876C49.3376 49.833 49.8882 50.4356 49.8193 50.4356C49.8882 50.5026 49.957 50.5026 50.0946 50.5695H50.4387C50.7139 50.5695 50.9204 50.4356 51.058 50.3017C51.8838 49.5651 50.7828 48.6277 50.9892 48.8955C50.9204 48.8286 47.686 45.4137 47.7549 45.4806C49.8193 42.6683 48.5807 44.4093 50.0946 42.2666C49.3376 42.6683 42.5937 46.552 41.9055 46.9537C41.8367 46.8868 33.6476 42.1996 33.7164 42.2666C33.7852 42.3335 35.9873 45.4137 35.9873 45.3467C34.8863 46.485 32.6842 48.8286 32.6153 48.8955V49.0295L32.5465 49.0964C32.2024 49.4982 32.2713 50.0338 32.6153 50.3686C33.1659 50.7704 33.3723 50.5695 33.854 50.3686L33.9917 50.2347C34.0605 50.1678 37.1572 46.8198 37.0884 46.9537C38.6712 49.1634 40.5292 51.7078 41.9743 53.5827C43.8324 51.0382 45.8968 48.159 46.7226 47.0876ZM40.8733 50.1008C40.8044 50.0338 37.7077 45.7485 37.8454 45.9493C37.9142 46.0163 41.0797 47.8242 40.8733 47.6903V50.1008Z" fill="black"/>
<path d="M76.3823 49.0297H68.8125V36.977H70.5329V47.6905H76.107L76.3823 49.0297ZM79.1349 46.5522C79.1349 46.887 79.2725 47.2218 79.479 47.4896C79.7542 47.7574 80.0983 47.8914 80.58 47.8914C81.0617 47.8914 81.4746 47.7574 81.8187 47.5566C82.2316 47.3557 82.5757 47.0878 82.851 46.753V45.0121H80.7177C80.1671 45.0121 79.7542 45.146 79.479 45.4808C79.2725 45.8156 79.1349 46.1504 79.1349 46.5522ZM78.1027 40.9946C78.4467 40.7937 78.9285 40.5928 79.5478 40.4589C80.1671 40.325 80.7177 40.258 81.0617 40.258C82.094 40.258 82.9198 40.5258 83.6079 41.0615C84.2961 41.5972 84.6402 42.3337 84.6402 43.2042V49.0297H83.6768C83.6079 48.8957 83.5391 48.7618 83.4703 48.6279C83.4015 48.494 83.3327 48.3601 83.2639 48.2261C82.9886 48.494 82.5757 48.6949 82.094 48.9627C81.6123 49.1636 81.1306 49.2975 80.6489 49.2975C79.6166 49.2975 78.8596 49.0297 78.3091 48.5609C77.8274 48.0253 77.5521 47.4226 77.5521 46.6191C77.5521 45.7487 77.8274 45.0791 78.4467 44.6773C79.0661 44.2086 79.8231 44.0077 80.7865 44.0077H82.851C82.851 43.4051 82.7133 42.9364 82.5069 42.4677C82.2316 42.0659 81.8187 41.7981 81.1306 41.7981C80.58 41.7981 80.1671 41.865 79.6854 41.9989C79.2725 42.1329 78.8596 42.2668 78.5844 42.4007L78.1027 40.9946ZM93.1734 48.1592C92.7605 48.494 92.3476 48.8288 91.797 49.0297C91.2465 49.2305 90.7648 49.3645 90.2831 49.3645C89.182 49.3645 88.4251 49.0966 87.9433 48.494C87.4616 47.8914 87.1864 47.0878 87.1864 46.2174V40.5258H88.9756V46.0835C88.9756 46.6191 89.1132 47.0878 89.3885 47.4226C89.6637 47.7574 90.0766 47.9583 90.696 47.9583C91.0401 47.9583 91.3841 47.8914 91.797 47.6905C92.2099 47.4896 92.6228 47.2887 92.9669 46.9539V40.4589H94.6873V49.0297H93.6551L93.1734 48.1592ZM98.8163 41.5972C99.1604 41.1954 99.7109 40.8606 100.261 40.5928C100.881 40.325 101.431 40.1911 101.913 40.1911C103.014 40.1911 103.771 40.5258 104.253 41.1285C104.734 41.7311 105.01 42.4677 105.01 43.4051V49.0297H103.289V43.539C103.289 42.9364 103.152 42.4677 102.876 42.1329C102.601 41.7981 102.188 41.5972 101.638 41.5972C101.294 41.5972 100.881 41.7311 100.33 41.932C99.8485 42.1329 99.4356 42.4677 99.0915 42.8025V49.0297H97.3711V40.4589H98.3346L98.8163 41.5972ZM111.41 41.6642C110.584 41.6642 109.964 41.932 109.552 42.5346C109.139 43.1373 108.932 43.8068 108.932 44.6773C108.932 45.5478 109.139 46.3513 109.483 46.887C109.896 47.4896 110.515 47.7574 111.341 47.7574C111.891 47.7574 112.304 47.6905 112.579 47.6235C112.924 47.4896 113.268 47.3557 113.612 47.2218L114.162 48.427C113.749 48.6949 113.268 48.8957 112.717 49.0297C112.167 49.1636 111.685 49.2305 111.341 49.2305C109.964 49.2305 108.932 48.8288 108.244 47.9583C107.556 47.0878 107.143 46.0165 107.143 44.6773C107.143 43.3381 107.556 42.2668 108.244 41.3963C109.001 40.5258 110.033 40.1241 111.41 40.1241C111.754 40.1241 112.235 40.1911 112.786 40.325C113.336 40.4589 113.818 40.6598 114.231 40.9276L113.749 42.1329C113.405 41.999 113.061 41.865 112.717 41.7311C112.373 41.7311 111.891 41.6642 111.41 41.6642ZM118.016 41.3963C118.36 41.0615 118.842 40.7267 119.392 40.5258C119.943 40.258 120.424 40.1911 120.906 40.1911C122.007 40.1911 122.764 40.5258 123.246 41.1285C123.728 41.7311 124.003 42.4677 124.003 43.4051V49.0297H122.283V43.539C122.283 42.9364 122.145 42.4677 121.87 42.1329C121.594 41.7981 121.181 41.5972 120.562 41.5972C120.218 41.5972 119.805 41.7311 119.323 41.932C118.842 42.1329 118.429 42.4677 118.085 42.8025V49.0297H116.364V36.7092L118.085 36.5083V41.3963H118.016ZM128.132 41.5972C128.476 41.1954 129.026 40.8606 129.577 40.5928C130.196 40.325 130.747 40.1911 131.229 40.1911C132.33 40.1911 133.087 40.5258 133.568 41.1285C134.05 41.7311 134.325 42.4677 134.325 43.4051V49.0297H132.605V43.539C132.605 42.9364 132.467 42.4677 132.192 42.1329C131.917 41.7981 131.504 41.5972 130.885 41.5972C130.54 41.5972 130.128 41.7311 129.577 41.932C129.026 42.1329 128.682 42.4677 128.338 42.8025V49.0297H126.618V40.4589H127.581L128.132 41.5972ZM140.45 49.2305C139.142 49.2305 138.11 48.7618 137.422 47.9583C136.734 47.0878 136.39 46.0165 136.39 44.6773C136.39 43.3381 136.803 42.2668 137.491 41.4633C138.248 40.5928 139.28 40.1911 140.588 40.1911C141.964 40.1911 142.996 40.5928 143.684 41.4633C144.372 42.3337 144.785 43.4051 144.785 44.7443C144.785 46.0835 144.372 47.1548 143.615 47.9583C142.927 48.8288 141.826 49.2305 140.45 49.2305ZM143.065 44.8112C143.065 43.8738 142.859 43.1373 142.514 42.5346C142.17 41.932 141.551 41.6642 140.725 41.6642C139.899 41.6642 139.28 41.932 138.867 42.4677C138.454 43.0033 138.248 43.7399 138.248 44.6773C138.248 45.6147 138.454 46.4183 138.798 46.9539C139.142 47.4896 139.762 47.7574 140.588 47.7574C141.413 47.7574 142.033 47.4896 142.446 46.9539C142.859 46.4852 143.065 45.7487 143.065 44.8112ZM150.841 41.5972C149.947 41.5972 149.258 41.932 148.914 42.5346C148.57 43.1373 148.364 43.8738 148.364 44.6773C148.364 45.5478 148.57 46.2843 148.914 46.887C149.258 47.4896 149.947 47.7574 150.841 47.7574C151.185 47.7574 151.529 47.6905 151.873 47.5566C152.217 47.4226 152.562 47.2218 152.906 46.9539V42.4007C152.562 42.1329 152.217 41.932 151.873 41.7981C151.461 41.6642 151.185 41.5972 150.841 41.5972ZM154.626 36.5753V49.0297H153.594L153.112 48.2261C152.768 48.5609 152.286 48.8288 151.805 48.9627C151.323 49.1636 150.841 49.2305 150.428 49.2305C149.121 49.2305 148.157 48.8288 147.538 47.9583C146.85 47.0878 146.575 46.0165 146.575 44.7443C146.575 43.4051 146.919 42.3337 147.607 41.4633C148.295 40.5928 149.258 40.1241 150.566 40.1241C150.91 40.1241 151.323 40.1911 151.736 40.325C152.149 40.4589 152.562 40.6598 152.906 40.8606V36.6422L154.626 36.5753ZM164.948 45.146H158.686C158.755 45.9495 159.03 46.6191 159.443 47.0878C159.925 47.6235 160.544 47.8244 161.439 47.8244C161.989 47.8244 162.402 47.7574 162.746 47.6905C163.09 47.5566 163.503 47.4226 163.847 47.2887L164.398 48.5609C163.985 48.8288 163.503 49.0297 162.884 49.0966C162.265 49.2305 161.783 49.2975 161.439 49.2975C159.925 49.2975 158.824 48.8957 157.998 48.0253C157.241 47.1548 156.828 46.0835 156.828 44.7443C156.828 43.4051 157.172 42.3337 157.929 41.4633C158.686 40.5928 159.718 40.1911 161.026 40.1911C162.471 40.1911 163.434 40.6598 164.054 41.6642C164.673 42.6685 164.948 43.8068 164.948 45.146ZM163.297 43.9408C163.159 43.2042 162.953 42.6685 162.609 42.2668C162.265 41.865 161.714 41.6642 161.095 41.6642C160.407 41.6642 159.856 41.865 159.512 42.3337C159.099 42.7355 158.893 43.2712 158.824 44.0077H163.297V43.9408ZM172.105 42.2668C171.761 42.1329 171.417 41.999 171.004 41.865C170.66 41.7311 170.247 41.6642 169.766 41.6642C169.284 41.6642 168.94 41.7311 168.665 41.932C168.389 42.1329 168.252 42.3337 168.252 42.6685C168.252 42.9364 168.389 43.1373 168.733 43.3381C169.077 43.539 169.49 43.7399 169.972 43.8738C170.729 44.1416 171.348 44.4764 172.036 44.9452C172.656 45.4139 173 45.9495 173 46.6861C173 47.4896 172.725 48.0922 172.105 48.5609C171.486 49.0297 170.591 49.2305 169.421 49.2305C169.077 49.2305 168.527 49.1636 167.976 49.0297C167.357 48.8957 166.875 48.6949 166.531 48.427L167.082 47.1548C167.426 47.3557 167.839 47.4896 168.252 47.5566C168.664 47.6905 169.077 47.6905 169.421 47.6905C169.972 47.6905 170.454 47.6235 170.798 47.4226C171.142 47.2218 171.28 47.0209 171.28 46.6861C171.28 46.3513 171.073 46.0835 170.729 45.8156C170.385 45.5478 169.903 45.3469 169.353 45.146C168.665 44.9452 167.976 44.6104 167.357 44.2086C166.738 43.8068 166.462 43.2712 166.462 42.5346C166.462 41.7311 166.738 41.1285 167.357 40.7267C167.976 40.258 168.802 40.0571 169.834 40.0571C170.178 40.0571 170.66 40.1241 171.28 40.258C171.83 40.3919 172.312 40.5928 172.725 40.8606L172.105 42.2668Z" fill="black"/>
</g>
<defs>
<clipPath id="clip0_52_26021">
<rect width="146" height="29" fill="white" transform="translate(27 27)"/>
</clipPath>
</defs>
</svg>
