<svg width="116" height="40" viewBox="0 0 116 40" fill="none" xmlns="http://www.w3.org/2000/svg">
<path d="M78.3464 10.4014C81.6449 9.84832 82.8107 9.78036 86.5995 11.7408C90.4384 13.727 99.8157 17.7759 103.12 17.8523C103.116 17.8659 103.108 17.8783 103.1 17.8917C101.23 17.8533 97.8537 17.6721 94.3244 17.4364C91.1972 16.0717 85.181 13.418 81.2903 11.5978C80.1047 11.0432 79.1527 10.6499 78.3464 10.4014ZM29.1181 11.4323C31.3178 11.2334 35.988 11.8208 39.5336 12.1025C35.6266 13.7538 31.7076 15.4718 29.2275 16.7406C28.4659 16.6435 27.805 16.5568 27.3116 16.4952C25.1028 16.2192 19.8743 16.6807 12.8809 17.4995C14.8976 16.8657 18.8247 15.8583 21.5795 15.9432C25.3157 16.0581 26.0236 11.7122 29.1181 11.4323ZM52.1637 7.3037C53.3775 6.77152 54.7211 6.96853 56.3859 7.66245C58.0539 8.35771 59.9955 9.53022 62.392 10.8932C62.8235 11.1386 63.2246 11.3718 63.6003 11.589C56.7341 12.9904 40.9136 17.1366 38.6338 17.3822C36.6342 17.5974 32.7983 17.1852 29.947 16.8312C32.7763 15.425 37.1296 13.5446 41.2672 11.8117C46.2244 9.73562 50.8725 7.86999 52.1637 7.3037ZM75.9366 10.5068C77.099 10.3488 78.4816 10.7293 81.1198 11.9635C84.6214 13.6016 89.8396 15.9116 93.1309 17.3536C88.9921 17.0655 84.8529 16.7205 82.8682 16.4528C80.0158 16.068 75.3639 14.0672 71.6228 12.6317C71.7257 12.5743 71.8311 12.5149 71.9382 12.4523C72.8585 11.915 73.5583 11.4715 74.1912 11.1346C74.818 10.801 75.3566 10.5857 75.9366 10.5068ZM65.534 7.61613C67.119 7.71169 67.9215 8.95317 68.7045 8.97228C69.4877 8.99102 71.0921 7.86407 72.8489 8.85697C73.7932 9.39076 74.2911 9.9675 75.0772 10.2989C74.7232 10.4183 74.3717 10.5805 74.001 10.7778C73.3598 11.1191 72.6362 11.5784 71.7352 12.1044C71.5222 12.2288 71.3185 12.3409 71.1241 12.4435C69.124 11.6879 67.4337 11.1297 66.4969 11.1297C66.1029 11.1297 65.2983 11.2549 64.2015 11.4687C63.717 11.1891 63.1851 10.8792 62.591 10.5413C62.0659 10.2427 61.5603 9.95158 61.0733 9.67203C62.8774 8.54086 64.1155 7.53069 65.534 7.61613Z" fill="black"/>
<path d="M89.0088 26.6839C89.0088 25.8833 89.1642 25.1956 89.4751 24.6211C89.7953 24.0465 90.2239 23.6038 90.7608 23.2929C91.2977 22.9821 91.8958 22.8267 92.5552 22.8267C92.9697 22.8267 93.3794 22.9067 93.7844 23.0669C94.1989 23.2176 94.5474 23.4436 94.83 23.7451L94.0388 24.6917C93.8598 24.4845 93.6384 24.3196 93.3747 24.1972C93.1204 24.0747 92.8284 24.0135 92.4987 24.0135C92.1125 24.0135 91.7546 24.1171 91.4249 24.3243C91.0952 24.5316 90.8314 24.8377 90.6336 25.2427C90.4358 25.6384 90.3369 26.1187 90.3369 26.6839C90.3369 27.2491 90.4311 27.72 90.6195 28.0968C90.8173 28.4642 91.0764 28.7421 91.3966 28.9304C91.7169 29.1094 92.0607 29.1989 92.428 29.1989C92.7954 29.1989 93.1204 29.1377 93.403 29.0152C93.6855 28.8833 93.921 28.7185 94.1094 28.5207L94.8583 29.4674C94.5757 29.7594 94.2224 29.9854 93.7986 30.1456C93.3747 30.3057 92.9367 30.3857 92.4846 30.3857C91.8252 30.3857 91.2318 30.2492 90.7043 29.976C90.1862 29.7028 89.7718 29.2931 89.4609 28.7468C89.1595 28.191 89.0088 27.5034 89.0088 26.6839Z" fill="black"/>
<path d="M84.6646 30.2444V22.9679H85.9645V30.2444H84.6646ZM84.4526 20.8203C84.4526 20.566 84.5327 20.354 84.6928 20.1845C84.8624 20.015 85.0696 19.9302 85.3145 19.9302C85.5783 19.9302 85.7855 20.015 85.9362 20.1845C86.0963 20.354 86.1764 20.566 86.1764 20.8203C86.1764 21.0652 86.0963 21.2724 85.9362 21.442C85.7855 21.6115 85.5783 21.6963 85.3145 21.6963C85.0696 21.6963 84.8624 21.6115 84.6928 21.442C84.5327 21.2724 84.4526 21.0652 84.4526 20.8203Z" fill="black"/>
<path d="M74.9028 26.5285C74.9028 25.7561 75.0253 25.0967 75.2702 24.5504C75.5245 23.9947 75.8777 23.5708 76.3299 23.2788C76.782 22.9774 77.3095 22.8267 77.9123 22.8267C78.2891 22.8267 78.6565 22.9209 79.0144 23.1092C79.3818 23.2882 79.6832 23.5849 79.9187 23.9994L80.1306 22.968H81.3457L81.2327 23.5896C81.195 23.7969 81.1667 23.9852 81.1479 24.1548C81.1385 24.3149 81.1338 24.4939 81.1338 24.6917V29.5945C81.1338 30.3198 80.9925 30.9368 80.7099 31.4454C80.4273 31.9541 80.0364 32.3403 79.5372 32.604C79.0474 32.8678 78.4916 32.9996 77.8699 32.9996C77.4084 32.9996 76.9374 32.929 76.457 32.7877C75.9766 32.6464 75.5716 32.4816 75.2419 32.2932L75.7082 31.1487C76.0379 31.3277 76.3628 31.4784 76.6831 31.6009C77.0034 31.7233 77.3801 31.7845 77.8134 31.7845C78.4163 31.7845 78.9014 31.6056 79.2687 31.2476C79.6455 30.8897 79.8339 30.3245 79.8339 29.5521V29.0717C79.5325 29.3826 79.1887 29.6322 78.8025 29.8206C78.4257 30.009 78.0301 30.1032 77.6156 30.1032C77.1258 30.1032 76.6737 29.9619 76.2592 29.6793C75.8448 29.3873 75.5151 28.9775 75.2702 28.4501C75.0253 27.9131 74.9028 27.2726 74.9028 26.5285ZM76.231 26.4861C76.231 27.0042 76.3063 27.4469 76.457 27.8142C76.6077 28.1722 76.815 28.4453 77.0787 28.6337C77.3425 28.8127 77.6392 28.9022 77.9689 28.9022C78.2797 28.9022 78.5952 28.8315 78.9155 28.6903C79.2358 28.5395 79.5419 28.3323 79.8339 28.0686V26.2459C79.8339 25.6996 79.7491 25.2569 79.5796 24.9178C79.4194 24.5787 79.2075 24.3291 78.9438 24.1689C78.68 23.9994 78.4069 23.9146 78.1243 23.9146C77.5403 23.9146 77.0787 24.1548 76.7396 24.6352C76.4005 25.1156 76.231 25.7326 76.231 26.4861Z" fill="black"/>
<path d="M57.7612 30.2447V20.4956H59.1176V29.0296H63.6389V30.2447H57.7612Z" fill="black"/>
<path d="M48.5693 30.2448V20.1424L50.4203 19.8599V25.6669L52.7939 22.8694H55.1111L52.3701 25.8224L55.3089 30.2448H53.1613L51.1974 27.0799L50.4203 27.9135V30.2448H48.5693Z" fill="black"/>
<path d="M40.0068 26.6842C40.0068 25.8741 40.1717 25.1723 40.5014 24.5789C40.831 23.9855 41.2785 23.5286 41.8436 23.2084C42.4088 22.8787 43.0493 22.7139 43.7652 22.7139C44.1985 22.7139 44.6035 22.7798 44.9803 22.9117C45.3665 23.0341 45.7103 23.199 46.0117 23.4062L45.2346 24.8615C45.0556 24.7014 44.839 24.5742 44.5847 24.48C44.3398 24.3858 44.076 24.3387 43.7934 24.3387C43.4449 24.3387 43.1247 24.4235 42.8327 24.593C42.5501 24.7626 42.324 25.0169 42.1545 25.356C41.9849 25.6951 41.9001 26.1237 41.9001 26.6418C41.9001 27.1033 41.9849 27.4942 42.1545 27.8145C42.324 28.1253 42.5548 28.3608 42.8468 28.5209C43.1388 28.6811 43.4638 28.7611 43.8217 28.7611C44.1043 28.7611 44.3727 28.714 44.6271 28.6198C44.8908 28.5257 45.1122 28.4079 45.2911 28.2666L46.0541 29.7078C45.7527 29.915 45.3947 30.0846 44.9803 30.2164C44.5658 30.3389 44.1184 30.4001 43.638 30.4001C42.9221 30.4001 42.291 30.2541 41.7447 29.9621C41.1984 29.6701 40.7698 29.2462 40.459 28.6905C40.1575 28.1253 40.0068 27.4565 40.0068 26.6842Z" fill="black"/>
<path d="M30.7388 26.5711C30.7388 25.7611 30.8895 25.0687 31.1909 24.4941C31.5017 23.9196 31.9209 23.4816 32.4484 23.1801C32.9759 22.8693 33.5834 22.7139 34.2711 22.7139C34.9587 22.7139 35.5662 22.8693 36.0937 23.1801C36.6212 23.4816 37.0357 23.9196 37.3371 24.4941C37.6385 25.0687 37.7892 25.7611 37.7892 26.5711C37.7892 27.3624 37.6385 28.0453 37.3371 28.6198C37.0357 29.1944 36.6212 29.6371 36.0937 29.948C35.5662 30.2494 34.9587 30.4001 34.2711 30.4001C33.5834 30.4001 32.9759 30.2494 32.4484 29.948C31.9209 29.6371 31.5017 29.1944 31.1909 28.6198C30.8895 28.0453 30.7388 27.3624 30.7388 26.5711ZM32.6321 26.5711C32.6321 27.0892 32.698 27.5225 32.8299 27.871C32.9618 28.2101 33.1501 28.4644 33.395 28.634C33.64 28.7941 33.932 28.8742 34.2711 28.8742C34.6007 28.8742 34.888 28.7941 35.1329 28.634C35.3873 28.4644 35.5804 28.2101 35.7122 27.871C35.8441 27.5225 35.91 27.0892 35.91 26.5711C35.91 26.0436 35.8441 25.6103 35.7122 25.2712C35.5804 24.9321 35.3873 24.6778 35.1329 24.5083C34.888 24.3293 34.6007 24.2398 34.2711 24.2398C33.932 24.2398 33.64 24.3293 33.395 24.5083C33.1501 24.6778 32.9618 24.9321 32.8299 25.2712C32.698 25.6103 32.6321 26.0436 32.6321 26.5711Z" fill="black"/>
<path d="M21.1421 30.2447V20.4956H24.7026C25.3808 20.4956 25.9884 20.6228 26.5253 20.8771C27.0622 21.122 27.4861 21.4846 27.7969 21.965C28.1172 22.436 28.2773 23.0059 28.2773 23.6747C28.2773 24.3811 28.0936 24.9698 27.7263 25.4408C27.3589 25.9118 26.8785 26.2603 26.2851 26.4864L28.5599 30.2447H26.3416L24.4059 26.7689H23.106V30.2447H21.1421ZM23.106 25.1441H24.5472C25.0559 25.1441 25.4703 25.0216 25.7906 24.7767C26.1108 24.5318 26.271 24.1645 26.271 23.6747C26.271 23.1943 26.1108 22.8363 25.7906 22.6008C25.4703 22.3559 25.0559 22.2335 24.5472 22.2335H23.106V25.1441Z" fill="black"/>
<path d="M69.4692 22.6211C71.4483 22.8786 72.975 24.5254 72.9751 26.5195C72.975 28.5136 71.4483 30.1604 69.4692 30.418V31.0869H68.3862V30.418C66.4067 30.1607 64.8795 28.5139 64.8794 26.5195C64.8795 24.5251 66.4067 22.8783 68.3862 22.6211V22.0273H69.4692V22.6211ZM68.3862 23.4443C67.0372 23.7181 66.0162 24.9962 66.0161 26.5322C66.0162 28.0681 67.0373 29.3452 68.3862 29.6191V23.4443ZM69.4692 29.6191C70.8177 29.3448 71.8383 28.0678 71.8384 26.5322C71.8383 24.9965 70.8178 23.7185 69.4692 23.4443V29.6191Z" fill="black"/>
</svg>
