<svg width="114" height="98" viewBox="0 0 114 98" fill="none" xmlns="http://www.w3.org/2000/svg">
<path d="M75.4588 0.394531C76.0684 0.394531 76.672 0.421038 77.2688 0.472142H113.7L94.2092 33.8618L94.1937 33.8359C90.4615 40.5222 83.4694 45.0232 75.4588 45.0232C68.7257 45.0232 62.7122 41.8432 58.749 36.8587L71.5016 58.7048C74.0367 63.0478 74.0367 68.4197 71.5016 72.7627L56.9998 97.6057L0.299805 0.472142H29.5035C34.4609 0.472142 39.0457 3.10446 41.5449 7.38581L55.5216 31.3293C54.4448 28.6771 53.8491 25.765 53.8491 22.7091C53.8491 10.3852 63.5241 0.394531 75.4588 0.394531Z" fill="#FC5F2B"/>
</svg>
